<svg aria-roledescription="flowchart-v2" id="bytemd-mermaid-1789040371183-1" role="graphics-document document" style="max-width: 734.578125px;" viewbox="-8 -8 734.578125 943.875" width="100%" xmlns="http://www.w3.org/2000/svg" xmlns:xlink="http://www.w3.org/1999/xlink"><g><marker class="marker flowchart" id="bytemd-mermaid-1789040371183-1_flowchart-pointEnd" markerheight="12" markerunits="userSpaceOnUse" markerwidth="12" orient="auto" refx="6" refy="5" viewbox="0 0 10 10"><path class="arrowMarkerPath" d="M 0 0 L 10 5 L 0 10 z" style="stroke-width: 1; stroke-dasharray: 1, 0;"></path></marker><marker class="marker flowchart" id="bytemd-mermaid-1789040371183-1_flowchart-pointStart" markerheight="12" markerunits="userSpaceOnUse" markerwidth="12" orient="auto" refx="4.5" refy="5" viewbox="0 0 10 10"><path class="arrowMarkerPath" d="M 0 5 L 10 10 L 10 0 z" style="stroke-width: 1; stroke-dasharray: 1, 0;"></path></marker><marker class="marker flowchart" id="bytemd-mermaid-1789040371183-1_flowchart-circleEnd" markerheight="11" markerunits="userSpaceOnUse" markerwidth="11" orient="auto" refx="11" refy="5" viewbox="0 0 10 10"><circle class="arrowMarkerPath" cx="5" cy="5" r="5" style="stroke-width: 1; stroke-dasharray: 1, 0;"></circle></marker><marker class="marker flowchart" id="bytemd-mermaid-1789040371183-1_flowchart-circleStart" markerheight="11" markerunits="userSpaceOnUse" markerwidth="11" orient="auto" refx="-1" refy="5" viewbox="0 0 10 10"><circle class="arrowMarkerPath" cx="5" cy="5" r="5" style="stroke-width: 1; stroke-dasharray: 1, 0;"></circle></marker><marker class="marker cross flowchart" id="bytemd-mermaid-1789040371183-1_flowchart-crossEnd" markerheight="11" markerunits="userSpaceOnUse" markerwidth="11" orient="auto" refx="12" refy="5.2" viewbox="0 0 11 11"><path class="arrowMarkerPath" d="M 1,1 l 9,9 M 10,1 l -9,9" style="stroke-width: 2; stroke-dasharray: 1, 0;"></path></marker><marker class="marker cross flowchart" id="bytemd-mermaid-1789040371183-1_flowchart-crossStart" markerheight="11" markerunits="userSpaceOnUse" markerwidth="11" orient="auto" refx="-1" refy="5.2" viewbox="0 0 11 11"><path class="arrowMarkerPath" d="M 1,1 l 9,9 M 10,1 l -9,9" style="stroke-width: 2; stroke-dasharray: 1, 0;"></path></marker><g class="root"><g class="clusters"></g><g class="edgePaths"><path class="edge-thickness-normal edge-pattern-solid flowchart-link LS-A LE-B" d="M431.5,43L431.5,47.167C431.5,51.333,431.5,59.667,431.566,67.2C431.632,74.734,431.764,81.467,431.83,84.834L431.896,88.201" id="L-A-B-0" marker-end="url(#bytemd-mermaid-1789040371183-1_flowchart-pointEnd)" style="fill:none;"></path><path class="edge-thickness-normal edge-pattern-solid flowchart-link LS-B LE-C" d="M403.176,192.551L393.813,203.772C384.451,214.992,365.725,237.434,356.363,254.271C347,271.108,347,282.342,347,287.958L347,293.575" id="L-B-C-0" marker-end="url(#bytemd-mermaid-1789040371183-1_flowchart-pointEnd)" style="fill:none;"></path><path class="edge-thickness-normal edge-pattern-solid flowchart-link LS-B LE-D" d="M473.799,179.576L499.143,192.959C524.486,206.342,575.173,233.109,600.516,252.108C625.859,271.108,625.859,282.342,625.859,287.958L625.859,293.575" id="L-B-D-0" marker-end="url(#bytemd-mermaid-1789040371183-1_flowchart-pointEnd)" style="fill:none;"></path><path class="edge-thickness-normal edge-pattern-solid flowchart-link LS-C LE-E" d="M291.5,340.151L279,344.605C266.5,349.059,241.5,357.967,229.066,365.788C216.632,373.609,216.764,380.342,216.83,383.709L216.896,387.076" id="L-C-E-0" marker-end="url(#bytemd-mermaid-1789040371183-1_flowchart-pointEnd)" style="fill:none;"></path><path class="edge-thickness-normal edge-pattern-solid flowchart-link LS-E LE-F" d="M180.111,477.486L160.676,490.051C141.24,502.615,102.37,527.745,82.935,545.927C63.5,564.108,63.5,575.342,63.5,580.958L63.5,586.575" id="L-E-F-0" marker-end="url(#bytemd-mermaid-1789040371183-1_flowchart-pointEnd)" style="fill:none;"></path><path class="edge-thickness-normal edge-pattern-solid flowchart-link LS-E LE-G" d="M217,514.375L216.917,520.792C216.833,527.208,216.667,540.042,216.583,552.075C216.5,564.108,216.5,575.342,216.5,580.958L216.5,586.575" id="L-E-G-0" marker-end="url(#bytemd-mermaid-1789040371183-1_flowchart-pointEnd)" style="fill:none;"></path><path class="edge-thickness-normal edge-pattern-solid flowchart-link LS-E LE-H" d="M253.102,478.273L271.168,490.707C289.235,503.14,325.367,528.008,343.434,546.058C361.5,564.108,361.5,575.342,361.5,580.958L361.5,586.575" id="L-E-H-0" marker-end="url(#bytemd-mermaid-1789040371183-1_flowchart-pointEnd)" style="fill:none;"></path><path class="edge-thickness-normal edge-pattern-solid flowchart-link LS-F LE-I" d="M63.5,634.875L63.5,639.042C63.5,643.208,63.5,651.542,90.086,666.801C116.671,682.06,169.842,704.245,196.428,715.337L223.013,726.43" id="L-F-I-0" marker-end="url(#bytemd-mermaid-1789040371183-1_flowchart-pointEnd)" style="fill:none;"></path><path class="edge-thickness-normal edge-pattern-solid flowchart-link LS-I LE-C" d="M314.096,728.471L341.33,717.038C368.564,705.605,423.032,682.74,450.266,663.558C477.5,644.375,477.5,628.875,477.5,611.042C477.5,593.208,477.5,573.042,477.5,546.292C477.5,519.542,477.5,486.208,477.5,455.208C477.5,424.208,477.5,395.542,465.832,377.051C454.164,358.56,430.828,350.245,419.16,346.087L407.493,341.93" id="L-I-C-0" marker-end="url(#bytemd-mermaid-1789040371183-1_flowchart-pointEnd)" style="fill:none;"></path><path class="edge-thickness-normal edge-pattern-solid flowchart-link LS-I LE-J" d="M271,807.375L270.917,813.792C270.833,820.208,270.667,833.042,270.583,845.075C270.5,857.108,270.5,868.342,270.5,873.958L270.5,879.575" id="L-I-J-0" marker-end="url(#bytemd-mermaid-1789040371183-1_flowchart-pointEnd)" style="fill:none;"></path><path class="edge-thickness-normal edge-pattern-solid flowchart-link LS-D LE-K" d="M625.859,341.875L625.859,346.042C625.859,350.208,625.859,358.542,625.859,372.575C625.859,386.608,625.859,406.342,625.859,416.208L625.859,426.075" id="L-D-K-0" marker-end="url(#bytemd-mermaid-1789040371183-1_flowchart-pointEnd)" style="fill:none;"></path><path class="edge-thickness-normal edge-pattern-solid flowchart-link LS-K LE-L" d="M625.859,474.375L625.859,487.458C625.859,500.542,625.859,526.708,625.859,545.408C625.859,564.108,625.859,575.342,625.859,580.958L625.859,586.575" id="L-K-L-0" marker-end="url(#bytemd-mermaid-1789040371183-1_flowchart-pointEnd)" style="fill:none;"></path></g><g class="edgeLabels"><g class="edgeLabel"><g class="label" transform="translate(0, 0)"><foreignobject height="0" width="0"><div style="display: inline-block; white-space: nowrap;" xmlns="http://www.w3.org/1999/xhtml"><span class="edgeLabel"></span></div></foreignobject></g></g><g class="edgeLabel" transform="translate(347, 259.875)"><g class="label" transform="translate(-19.609375, -14)"><foreignobject height="28" width="39.21875"><div style="display: inline-block; white-space: nowrap;" xmlns="http://www.w3.org/1999/xhtml"><span class="edgeLabel">HTML</span></div></foreignobject></g></g><g class="edgeLabel" transform="translate(625.859375, 259.875)"><g class="label" transform="translate(-32, -14)"><foreignobject height="28" width="64"><div style="display: inline-block; white-space: nowrap;" xmlns="http://www.w3.org/1999/xhtml"><span class="edgeLabel">其他语言</span></div></foreignobject></g></g><g class="edgeLabel"><g class="label" transform="translate(0, 0)"><foreignobject height="0" width="0"><div style="display: inline-block; white-space: nowrap;" xmlns="http://www.w3.org/1999/xhtml"><span class="edgeLabel"></span></div></foreignobject></g></g><g class="edgeLabel" transform="translate(63.5, 552.875)"><g class="label" transform="translate(-48, -14)"><foreignobject height="28" width="96"><div style="display: inline-block; white-space: nowrap;" xmlns="http://www.w3.org/1999/xhtml"><span class="edgeLabel">点击代码按钮</span></div></foreignobject></g></g><g class="edgeLabel" transform="translate(216.5, 552.875)"><g class="label" transform="translate(-48, -14)"><foreignobject height="28" width="96"><div style="display: inline-block; white-space: nowrap;" xmlns="http://www.w3.org/1999/xhtml"><span class="edgeLabel">点击全屏按钮</span></div></foreignobject></g></g><g class="edgeLabel" transform="translate(361.5, 552.875)"><g class="label" transform="translate(-48, -14)"><foreignobject height="28" width="96"><div style="display: inline-block; white-space: nowrap;" xmlns="http://www.w3.org/1999/xhtml"><span class="edgeLabel">点击复制按钮</span></div></foreignobject></g></g><g class="edgeLabel"><g class="label" transform="translate(0, 0)"><foreignobject height="0" width="0"><div style="display: inline-block; white-space: nowrap;" xmlns="http://www.w3.org/1999/xhtml"><span class="edgeLabel"></span></div></foreignobject></g></g><g class="edgeLabel" transform="translate(477.5, 552.875)"><g class="label" transform="translate(-48, -14)"><foreignobject height="28" width="96"><div style="display: inline-block; white-space: nowrap;" xmlns="http://www.w3.org/1999/xhtml"><span class="edgeLabel">点击预览按钮</span></div></foreignobject></g></g><g class="edgeLabel" transform="translate(270.5, 845.875)"><g class="label" transform="translate(-48, -14)"><foreignobject height="28" width="96"><div style="display: inline-block; white-space: nowrap;" xmlns="http://www.w3.org/1999/xhtml"><span class="edgeLabel">点击下载按钮</span></div></foreignobject></g></g><g class="edgeLabel"><g class="label" transform="translate(0, 0)"><foreignobject height="0" width="0"><div style="display: inline-block; white-space: nowrap;" xmlns="http://www.w3.org/1999/xhtml"><span class="edgeLabel"></span></div></foreignobject></g></g><g class="edgeLabel"><g class="label" transform="translate(0, 0)"><foreignobject height="0" width="0"><div style="display: inline-block; white-space: nowrap;" xmlns="http://www.w3.org/1999/xhtml"><span class="edgeLabel"></span></div></foreignobject></g></g></g><g class="nodes"><g class="node default default flowchart-label" data-id="A" data-node="true" id="flowchart-A-12" transform="translate(431.5, 21.5)"><rect class="basic label-container" height="43" rx="0" ry="0" style="" width="95" x="-47.5" y="-21.5"></rect><g class="label" style="" transform="translate(-40, -14)"><rect></rect><foreignobject height="28" width="80"><div style="display: inline-block; white-space: nowrap;" xmlns="http://www.w3.org/1999/xhtml"><span class="nodeLabel">接收代码块</span></div></foreignobject></g></g><g class="node default default flowchart-label" data-id="B" data-node="true" id="flowchart-B-13" transform="translate(431.5, 156.9375)"><polygon class="label-container" points="63.9375,0 127.875,-63.9375 63.9375,-127.875 0,-63.9375" style="" transform="translate(-63.9375,63.9375)"></polygon><g class="label" style="" transform="translate(-34.9375, -14)"><rect></rect><foreignobject height="28" width="69.875"><div style="display: inline-block; white-space: nowrap;" xmlns="http://www.w3.org/1999/xhtml"><span class="nodeLabel">代码类型?</span></div></foreignobject></g></g><g class="node default default flowchart-label" data-id="C" data-node="true" id="flowchart-C-15" transform="translate(347, 320.375)"><rect class="basic label-container" height="43" rx="0" ry="0" style="" width="111" x="-55.5" y="-21.5"></rect><g class="label" style="" transform="translate(-48, -14)"><rect></rect><foreignobject height="28" width="96"><div style="display: inline-block; white-space: nowrap;" xmlns="http://www.w3.org/1999/xhtml"><span class="nodeLabel">默认显示预览</span></div></foreignobject></g></g><g class="node default default flowchart-label" data-id="D" data-node="true" id="flowchart-D-17" transform="translate(625.859375, 320.375)"><rect class="basic label-container" height="43" rx="0" ry="0" style="" width="127" x="-63.5" y="-21.5"></rect><g class="label" style="" transform="translate(-56, -14)"><rect></rect><foreignobject height="28" width="112"><div style="display: inline-block; white-space: nowrap;" xmlns="http://www.w3.org/1999/xhtml"><span class="nodeLabel">显示代码编辑器</span></div></foreignobject></g></g><g class="node default default flowchart-label" data-id="E" data-node="true" id="flowchart-E-19" transform="translate(216.5, 452.875)"><polygon class="label-container" points="61,0 122,-61 61,-122 0,-61" style="" transform="translate(-61,61)"></polygon><g class="label" style="" transform="translate(-32, -14)"><rect></rect><foreignobject height="28" width="64"><div style="display: inline-block; white-space: nowrap;" xmlns="http://www.w3.org/1999/xhtml"><span class="nodeLabel">用户操作</span></div></foreignobject></g></g><g class="node default default flowchart-label" data-id="F" data-node="true" id="flowchart-F-21" transform="translate(63.5, 613.375)"><rect class="basic label-container" height="43" rx="0" ry="0" style="" width="127" x="-63.5" y="-21.5"></rect><g class="label" style="" transform="translate(-56, -14)"><rect></rect><foreignobject height="28" width="112"><div style="display: inline-block; white-space: nowrap;" xmlns="http://www.w3.org/1999/xhtml"><span class="nodeLabel">切换到代码视图</span></div></foreignobject></g></g><g class="node default default flowchart-label" data-id="G" data-node="true" id="flowchart-G-23" transform="translate(216.5, 613.375)"><rect class="basic label-container" height="43" rx="0" ry="0" style="" width="79" x="-39.5" y="-21.5"></rect><g class="label" style="" transform="translate(-32, -14)"><rect></rect><foreignobject height="28" width="64"><div style="display: inline-block; white-space: nowrap;" xmlns="http://www.w3.org/1999/xhtml"><span class="nodeLabel">全屏预览</span></div></foreignobject></g></g><g class="node default default flowchart-label" data-id="H" data-node="true" id="flowchart-H-25" transform="translate(361.5, 613.375)"><rect class="basic label-container" height="43" rx="0" ry="0" style="" width="111" x="-55.5" y="-21.5"></rect><g class="label" style="" transform="translate(-48, -14)"><rect></rect><foreignobject height="28" width="96"><div style="display: inline-block; white-space: nowrap;" xmlns="http://www.w3.org/1999/xhtml"><span class="nodeLabel">复制到剪贴板</span></div></foreignobject></g></g><g class="node default default flowchart-label" data-id="I" data-node="true" id="flowchart-I-27" transform="translate(270.5, 745.875)"><polygon class="label-container" points="61,0 122,-61 61,-122 0,-61" style="" transform="translate(-61,61)"></polygon><g class="label" style="" transform="translate(-32, -14)"><rect></rect><foreignobject height="28" width="64"><div style="display: inline-block; white-space: nowrap;" xmlns="http://www.w3.org/1999/xhtml"><span class="nodeLabel">用户操作</span></div></foreignobject></g></g><g class="node default default flowchart-label" data-id="J" data-node="true" id="flowchart-J-31" transform="translate(270.5, 906.375)"><rect class="basic label-container" height="43" rx="0" ry="0" style="" width="79" x="-39.5" y="-21.5"></rect><g class="label" style="" transform="translate(-32, -14)"><rect></rect><foreignobject height="28" width="64"><div style="display: inline-block; white-space: nowrap;" xmlns="http://www.w3.org/1999/xhtml"><span class="nodeLabel">下载文件</span></div></foreignobject></g></g><g class="node default default flowchart-label" data-id="K" data-node="true" id="flowchart-K-33" transform="translate(625.859375, 452.875)"><rect class="basic label-container" height="43" rx="0" ry="0" style="" width="185.4375" x="-92.71875" y="-21.5"></rect><g class="label" style="" transform="translate(-85.21875, -14)"><rect></rect><foreignobject height="28" width="170.4375"><div style="display: inline-block; white-space: nowrap;" xmlns="http://www.w3.org/1999/xhtml"><span class="nodeLabel">Monaco Editor 语法高亮</span></div></foreignobject></g></g><g class="node default default flowchart-label" data-id="L" data-node="true" id="flowchart-L-35" transform="translate(625.859375, 613.375)"><rect class="basic label-container" height="43" rx="0" ry="0" style="" width="119.39583587646484" x="-59.69791793823242" y="-21.5"></rect><g class="label" style="" transform="translate(-52.19791793823242, -14)"><rect></rect><foreignobject height="28" width="104.39583587646484"><div style="display: inline-block; white-space: nowrap;" xmlns="http://www.w3.org/1999/xhtml"><span class="nodeLabel">支持复制/下载</span></div></foreignobject></g></g></g></g></g></svg>