<?xml version="1.0" encoding="us-ascii" standalone="no"?><svg xmlns="http://www.w3.org/2000/svg" xmlns:xlink="http://www.w3.org/1999/xlink" contentStyleType="text/css" height="554px" preserveAspectRatio="none" style="width:527px;height:554px;background:#FFFFFF;" version="1.1" viewBox="0 0 527 554" width="527px" zoomAndPan="magnify"><defs/><g><line style="stroke:#181818;stroke-width:0.5;stroke-dasharray:5.0,5.0;" x1="39" x2="39" y1="81.2969" y2="473.7578"/><line style="stroke:#181818;stroke-width:0.5;stroke-dasharray:5.0,5.0;" x1="279.5" x2="279.5" y1="81.2969" y2="473.7578"/><line style="stroke:#181818;stroke-width:0.5;stroke-dasharray:5.0,5.0;" x1="485" x2="485" y1="81.2969" y2="473.7578"/><text fill="#000000" font-family="sans-serif" font-size="14" lengthAdjust="spacing" textLength="63" x="5" y="77.9951">Frontend</text><ellipse cx="39.5" cy="13.5" fill="#E2E2F0" rx="8" ry="8" style="stroke:#181818;stroke-width:0.5;"/><path d="M39.5,21.5 L39.5,48.5 M26.5,29.5 L52.5,29.5 M39.5,48.5 L26.5,63.5 M39.5,48.5 L52.5,63.5 " fill="none" style="stroke:#181818;stroke-width:0.5;"/><text fill="#000000" font-family="sans-serif" font-size="14" lengthAdjust="spacing" textLength="63" x="5" y="485.7529">Frontend</text><ellipse cx="39.5" cy="497.5547" fill="#E2E2F0" rx="8" ry="8" style="stroke:#181818;stroke-width:0.5;"/><path d="M39.5,505.5547 L39.5,532.5547 M26.5,513.5547 L52.5,513.5547 M39.5,532.5547 L26.5,547.5547 M39.5,532.5547 L52.5,547.5547 " fill="none" style="stroke:#181818;stroke-width:0.5;"/><rect fill="#E2E2F0" height="30.2969" rx="2.5" ry="2.5" style="stroke:#181818;stroke-width:0.5;" width="58" x="250.5" y="50"/><text fill="#000000" font-family="sans-serif" font-size="14" lengthAdjust="spacing" textLength="44" x="257.5" y="69.9951">Server</text><rect fill="#E2E2F0" height="30.2969" rx="2.5" ry="2.5" style="stroke:#181818;stroke-width:0.5;" width="58" x="250.5" y="472.7578"/><text fill="#000000" font-family="sans-serif" font-size="14" lengthAdjust="spacing" textLength="44" x="257.5" y="492.7529">Server</text><rect fill="#E2E2F0" height="30.2969" rx="2.5" ry="2.5" style="stroke:#181818;stroke-width:0.5;" width="71" x="450" y="50"/><text fill="#000000" font-family="sans-serif" font-size="14" lengthAdjust="spacing" textLength="57" x="457" y="69.9951">Browser</text><rect fill="#E2E2F0" height="30.2969" rx="2.5" ry="2.5" style="stroke:#181818;stroke-width:0.5;" width="71" x="450" y="472.7578"/><text fill="#000000" font-family="sans-serif" font-size="14" lengthAdjust="spacing" textLength="57" x="457" y="492.7529">Browser</text><polygon fill="#181818" points="267.5,108.4297,277.5,112.4297,267.5,116.4297,271.5,112.4297" style="stroke:#181818;stroke-width:1.0;"/><line style="stroke:#181818;stroke-width:1.0;" x1="39.5" x2="273.5" y1="112.4297" y2="112.4297"/><text fill="#000000" font-family="sans-serif" font-size="13" lengthAdjust="spacing" textLength="52" x="46.5" y="107.3638">&#24314;&#31435;&#36830;&#25509;</text><polygon fill="#181818" points="50.5,137.5625,40.5,141.5625,50.5,145.5625,46.5,141.5625" style="stroke:#181818;stroke-width:1.0;"/><line style="stroke:#181818;stroke-width:1.0;" x1="44.5" x2="278.5" y1="141.5625" y2="141.5625"/><text fill="#000000" font-family="sans-serif" font-size="13" lengthAdjust="spacing" textLength="216" x="56.5" y="136.4966">&#21019;&#24314;&#21311;&#21517; Session&#65292;&#36820;&#22238; Session ID</text><polygon fill="#181818" points="267.5,166.6953,277.5,170.6953,267.5,174.6953,271.5,170.6953" style="stroke:#181818;stroke-width:1.0;"/><line style="stroke:#181818;stroke-width:1.0;" x1="39.5" x2="273.5" y1="170.6953" y2="170.6953"/><text fill="#000000" font-family="sans-serif" font-size="13" lengthAdjust="spacing" textLength="176" x="46.5" y="165.6294">&#25552;&#20132;&#30331;&#24405;&#20449;&#24687; (&#29992;&#25143;&#21517; &amp; &#23494;&#30721;)</text><line style="stroke:#181818;stroke-width:1.0;" x1="279.5" x2="321.5" y1="199.8281" y2="199.8281"/><line style="stroke:#181818;stroke-width:1.0;" x1="321.5" x2="321.5" y1="199.8281" y2="212.8281"/><line style="stroke:#181818;stroke-width:1.0;" x1="280.5" x2="321.5" y1="212.8281" y2="212.8281"/><polygon fill="#181818" points="290.5,208.8281,280.5,212.8281,290.5,216.8281,286.5,212.8281" style="stroke:#181818;stroke-width:1.0;"/><text fill="#000000" font-family="sans-serif" font-size="13" lengthAdjust="spacing" textLength="78" x="286.5" y="194.7622">&#39564;&#35777;&#30331;&#24405;&#20449;&#24687;</text><line style="stroke:#181818;stroke-width:1.0;" x1="279.5" x2="321.5" y1="241.9609" y2="241.9609"/><line style="stroke:#181818;stroke-width:1.0;" x1="321.5" x2="321.5" y1="241.9609" y2="254.9609"/><line style="stroke:#181818;stroke-width:1.0;" x1="280.5" x2="321.5" y1="254.9609" y2="254.9609"/><polygon fill="#181818" points="290.5,250.9609,280.5,254.9609,290.5,258.9609,286.5,254.9609" style="stroke:#181818;stroke-width:1.0;"/><text fill="#000000" font-family="sans-serif" font-size="13" lengthAdjust="spacing" textLength="171" x="286.5" y="236.895">&#26356;&#26032; Session&#65292;&#23384;&#20648;&#29992;&#25143;&#20449;&#24687;</text><polygon fill="#181818" points="50.5,280.0938,40.5,284.0938,50.5,288.0938,46.5,284.0938" style="stroke:#181818;stroke-width:1.0;"/><line style="stroke:#181818;stroke-width:1.0;" x1="44.5" x2="278.5" y1="284.0938" y2="284.0938"/><text fill="#000000" font-family="sans-serif" font-size="13" lengthAdjust="spacing" textLength="211" x="56.5" y="279.0278">&#36820;&#22238; Set-Cookie &#25351;&#20196; (Session ID)</text><polygon fill="#181818" points="473.5,309.2266,483.5,313.2266,473.5,317.2266,477.5,313.2266" style="stroke:#181818;stroke-width:1.0;"/><line style="stroke:#181818;stroke-width:1.0;" x1="39.5" x2="479.5" y1="313.2266" y2="313.2266"/><text fill="#000000" font-family="sans-serif" font-size="13" lengthAdjust="spacing" textLength="193" x="46.5" y="308.1606">&#27983;&#35272;&#22120;&#20445;&#23384; Cookie (Session ID)</text><polygon fill="#181818" points="267.5,338.3594,277.5,342.3594,267.5,346.3594,271.5,342.3594" style="stroke:#181818;stroke-width:1.0;"/><line style="stroke:#181818;stroke-width:1.0;" x1="39.5" x2="273.5" y1="342.3594" y2="342.3594"/><text fill="#000000" font-family="sans-serif" font-size="13" lengthAdjust="spacing" textLength="164" x="46.5" y="337.2935">&#21518;&#32493;&#35831;&#27714;&#26102;&#33258;&#21160;&#38468;&#24102; Cookie</text><line style="stroke:#181818;stroke-width:1.0;" x1="279.5" x2="321.5" y1="371.4922" y2="371.4922"/><line style="stroke:#181818;stroke-width:1.0;" x1="321.5" x2="321.5" y1="371.4922" y2="384.4922"/><line style="stroke:#181818;stroke-width:1.0;" x1="280.5" x2="321.5" y1="384.4922" y2="384.4922"/><polygon fill="#181818" points="290.5,380.4922,280.5,384.4922,290.5,388.4922,286.5,384.4922" style="stroke:#181818;stroke-width:1.0;"/><text fill="#000000" font-family="sans-serif" font-size="13" lengthAdjust="spacing" textLength="192" x="286.5" y="366.4263">&#25552;&#21462; Cookie&#65292;&#26597;&#25214;&#23545;&#24212; Session</text><line style="stroke:#181818;stroke-width:1.0;" x1="279.5" x2="321.5" y1="413.625" y2="413.625"/><line style="stroke:#181818;stroke-width:1.0;" x1="321.5" x2="321.5" y1="413.625" y2="426.625"/><line style="stroke:#181818;stroke-width:1.0;" x1="280.5" x2="321.5" y1="426.625" y2="426.625"/><polygon fill="#181818" points="290.5,422.625,280.5,426.625,290.5,430.625,286.5,426.625" style="stroke:#181818;stroke-width:1.0;"/><text fill="#000000" font-family="sans-serif" font-size="13" lengthAdjust="spacing" textLength="162" x="286.5" y="408.5591">&#20174; Session &#20013;&#33719;&#21462;&#29992;&#25143;&#20449;&#24687;</text><polygon fill="#181818" points="50.5,451.7578,40.5,455.7578,50.5,459.7578,46.5,455.7578" style="stroke:#181818;stroke-width:1.0;"/><line style="stroke:#181818;stroke-width:1.0;" x1="44.5" x2="278.5" y1="455.7578" y2="455.7578"/><text fill="#000000" font-family="sans-serif" font-size="13" lengthAdjust="spacing" textLength="170" x="56.5" y="450.6919">&#36820;&#22238;&#22788;&#29702;&#32467;&#26524; (&#22914;&#39029;&#38754;&#25110;&#25968;&#25454;)</text></g></svg>