<svg aria-roledescription="flowchart-v2" id="bytemd-mermaid-1789020249556-0" role="graphics-document document" style="max-width: 336px;" viewbox="-8 -8 336 1144" width="100%" xmlns="http://www.w3.org/2000/svg" xmlns:xlink="http://www.w3.org/1999/xlink"><g><marker class="marker flowchart" id="bytemd-mermaid-1789020249556-0_flowchart-pointEnd" markerheight="12" markerunits="userSpaceOnUse" markerwidth="12" orient="auto" refx="6" refy="5" viewbox="0 0 10 10"><path class="arrowMarkerPath" d="M 0 0 L 10 5 L 0 10 z" style="stroke-width: 1; stroke-dasharray: 1, 0;"></path></marker><marker class="marker flowchart" id="bytemd-mermaid-1789020249556-0_flowchart-pointStart" markerheight="12" markerunits="userSpaceOnUse" markerwidth="12" orient="auto" refx="4.5" refy="5" viewbox="0 0 10 10"><path class="arrowMarkerPath" d="M 0 5 L 10 10 L 10 0 z" style="stroke-width: 1; stroke-dasharray: 1, 0;"></path></marker><marker class="marker flowchart" id="bytemd-mermaid-1789020249556-0_flowchart-circleEnd" markerheight="11" markerunits="userSpaceOnUse" markerwidth="11" orient="auto" refx="11" refy="5" viewbox="0 0 10 10"><circle class="arrowMarkerPath" cx="5" cy="5" r="5" style="stroke-width: 1; stroke-dasharray: 1, 0;"></circle></marker><marker class="marker flowchart" id="bytemd-mermaid-1789020249556-0_flowchart-circleStart" markerheight="11" markerunits="userSpaceOnUse" markerwidth="11" orient="auto" refx="-1" refy="5" viewbox="0 0 10 10"><circle class="arrowMarkerPath" cx="5" cy="5" r="5" style="stroke-width: 1; stroke-dasharray: 1, 0;"></circle></marker><marker class="marker cross flowchart" id="bytemd-mermaid-1789020249556-0_flowchart-crossEnd" markerheight="11" markerunits="userSpaceOnUse" markerwidth="11" orient="auto" refx="12" refy="5.2" viewbox="0 0 11 11"><path class="arrowMarkerPath" d="M 1,1 l 9,9 M 10,1 l -9,9" style="stroke-width: 2; stroke-dasharray: 1, 0;"></path></marker><marker class="marker cross flowchart" id="bytemd-mermaid-1789020249556-0_flowchart-crossStart" markerheight="11" markerunits="userSpaceOnUse" markerwidth="11" orient="auto" refx="-1" refy="5.2" viewbox="0 0 11 11"><path class="arrowMarkerPath" d="M 1,1 l 9,9 M 10,1 l -9,9" style="stroke-width: 2; stroke-dasharray: 1, 0;"></path></marker><g class="root"><g class="clusters"></g><g class="edgePaths"><path class="edge-thickness-normal edge-pattern-solid flowchart-link LS-A LE-B" d="M156,43L156,47.167C156,51.333,156,59.667,156,67.117C156,74.567,156,81.133,156,84.417L156,87.7" id="L-A-B-0" marker-end="url(#bytemd-mermaid-1789020249556-0_flowchart-pointEnd)" style="fill:none;"></path><path class="edge-thickness-normal edge-pattern-solid flowchart-link LS-B LE-C" d="M156,136L156,140.167C156,144.333,156,152.667,156,160.117C156,167.567,156,174.133,156,177.417L156,180.7" id="L-B-C-0" marker-end="url(#bytemd-mermaid-1789020249556-0_flowchart-pointEnd)" style="fill:none;"></path><path class="edge-thickness-normal edge-pattern-solid flowchart-link LS-C LE-D" d="M156,229L156,233.167C156,237.333,156,245.667,156,253.117C156,260.567,156,267.133,156,270.417L156,273.7" id="L-C-D-0" marker-end="url(#bytemd-mermaid-1789020249556-0_flowchart-pointEnd)" style="fill:none;"></path><path class="edge-thickness-normal edge-pattern-solid flowchart-link LS-D LE-E" d="M156,322L156,326.167C156,330.333,156,338.667,156,346.117C156,353.567,156,360.133,156,363.417L156,366.7" id="L-D-E-0" marker-end="url(#bytemd-mermaid-1789020249556-0_flowchart-pointEnd)" style="fill:none;"></path><path class="edge-thickness-normal edge-pattern-solid flowchart-link LS-E LE-F" d="M156,415L156,419.167C156,423.333,156,431.667,156,439.117C156,446.567,156,453.133,156,456.417L156,459.7" id="L-E-F-0" marker-end="url(#bytemd-mermaid-1789020249556-0_flowchart-pointEnd)" style="fill:none;"></path><path class="edge-thickness-normal edge-pattern-solid flowchart-link LS-F LE-G" d="M156,508L156,512.167C156,516.333,156,524.667,156,532.117C156,539.567,156,546.133,156,549.417L156,552.7" id="L-F-G-0" marker-end="url(#bytemd-mermaid-1789020249556-0_flowchart-pointEnd)" style="fill:none;"></path><path class="edge-thickness-normal edge-pattern-solid flowchart-link LS-G LE-H" d="M156,601L156,605.167C156,609.333,156,617.667,156,625.117C156,632.567,156,639.133,156,642.417L156,645.7" id="L-G-H-0" marker-end="url(#bytemd-mermaid-1789020249556-0_flowchart-pointEnd)" style="fill:none;"></path><path class="edge-thickness-normal edge-pattern-solid flowchart-link LS-H LE-I" d="M156,694L156,698.167C156,702.333,156,710.667,156,718.117C156,725.567,156,732.133,156,735.417L156,738.7" id="L-H-I-0" marker-end="url(#bytemd-mermaid-1789020249556-0_flowchart-pointEnd)" style="fill:none;"></path><path class="edge-thickness-normal edge-pattern-solid flowchart-link LS-I LE-J" d="M156,787L156,791.167C156,795.333,156,803.667,156.066,811.2C156.132,818.734,156.264,825.467,156.33,828.834L156.396,832.201" id="L-I-J-0" marker-end="url(#bytemd-mermaid-1789020249556-0_flowchart-pointEnd)" style="fill:none;"></path><path class="edge-thickness-normal edge-pattern-solid flowchart-link LS-J LE-K" d="M120.184,971.184L110.736,983.653C101.289,996.122,82.395,1021.061,72.947,1039.147C63.5,1057.233,63.5,1068.467,63.5,1074.083L63.5,1079.7" id="L-J-K-0" marker-end="url(#bytemd-mermaid-1789020249556-0_flowchart-pointEnd)" style="fill:none;"></path><path class="edge-thickness-normal edge-pattern-solid flowchart-link LS-J LE-L" d="M192.816,971.184L202.097,983.653C211.378,996.122,229.939,1021.061,239.219,1039.147C248.5,1057.233,248.5,1068.467,248.5,1074.083L248.5,1079.7" id="L-J-L-0" marker-end="url(#bytemd-mermaid-1789020249556-0_flowchart-pointEnd)" style="fill:none;"></path></g><g class="edgeLabels"><g class="edgeLabel"><g class="label" transform="translate(0, 0)"><foreignobject height="0" width="0"><div style="display: inline-block; white-space: nowrap;" xmlns="http://www.w3.org/1999/xhtml"><span class="edgeLabel"></span></div></foreignobject></g></g><g class="edgeLabel"><g class="label" transform="translate(0, 0)"><foreignobject height="0" width="0"><div style="display: inline-block; white-space: nowrap;" xmlns="http://www.w3.org/1999/xhtml"><span class="edgeLabel"></span></div></foreignobject></g></g><g class="edgeLabel"><g class="label" transform="translate(0, 0)"><foreignobject height="0" width="0"><div style="display: inline-block; white-space: nowrap;" xmlns="http://www.w3.org/1999/xhtml"><span class="edgeLabel"></span></div></foreignobject></g></g><g class="edgeLabel"><g class="label" transform="translate(0, 0)"><foreignobject height="0" width="0"><div style="display: inline-block; white-space: nowrap;" xmlns="http://www.w3.org/1999/xhtml"><span class="edgeLabel"></span></div></foreignobject></g></g><g class="edgeLabel"><g class="label" transform="translate(0, 0)"><foreignobject height="0" width="0"><div style="display: inline-block; white-space: nowrap;" xmlns="http://www.w3.org/1999/xhtml"><span class="edgeLabel"></span></div></foreignobject></g></g><g class="edgeLabel"><g class="label" transform="translate(0, 0)"><foreignobject height="0" width="0"><div style="display: inline-block; white-space: nowrap;" xmlns="http://www.w3.org/1999/xhtml"><span class="edgeLabel"></span></div></foreignobject></g></g><g class="edgeLabel"><g class="label" transform="translate(0, 0)"><foreignobject height="0" width="0"><div style="display: inline-block; white-space: nowrap;" xmlns="http://www.w3.org/1999/xhtml"><span class="edgeLabel"></span></div></foreignobject></g></g><g class="edgeLabel"><g class="label" transform="translate(0, 0)"><foreignobject height="0" width="0"><div style="display: inline-block; white-space: nowrap;" xmlns="http://www.w3.org/1999/xhtml"><span class="edgeLabel"></span></div></foreignobject></g></g><g class="edgeLabel"><g class="label" transform="translate(0, 0)"><foreignobject height="0" width="0"><div style="display: inline-block; white-space: nowrap;" xmlns="http://www.w3.org/1999/xhtml"><span class="edgeLabel"></span></div></foreignobject></g></g><g class="edgeLabel" transform="translate(63.5, 1046)"><g class="label" transform="translate(-16, -14)"><foreignobject height="28" width="32"><div style="display: inline-block; white-space: nowrap;" xmlns="http://www.w3.org/1999/xhtml"><span class="edgeLabel">合并</span></div></foreignobject></g></g><g class="edgeLabel" transform="translate(248.5, 1046)"><g class="label" transform="translate(-16, -14)"><foreignobject height="28" width="32"><div style="display: inline-block; white-space: nowrap;" xmlns="http://www.w3.org/1999/xhtml"><span class="edgeLabel">拒绝</span></div></foreignobject></g></g></g><g class="nodes"><g class="node default default flowchart-label" data-id="A" data-node="true" id="flowchart-A-54" transform="translate(156, 21.5)"><rect class="basic label-container" height="43" rx="0" ry="0" style="fill:#e3f2fd;stroke:#1976d2;" width="133.671875" x="-66.8359375" y="-21.5"></rect><g class="label" style="" transform="translate(-59.3359375, -14)"><rect></rect><foreignobject height="28" width="118.671875"><div style="display: inline-block; white-space: nowrap;" xmlns="http://www.w3.org/1999/xhtml"><span class="nodeLabel">GitHub 账号登录</span></div></foreignobject></g></g><g class="node default default flowchart-label" data-id="B" data-node="true" id="flowchart-B-55" transform="translate(156, 114.5)"><rect class="basic label-container" height="43" rx="0" ry="0" style="" width="169.703125" x="-84.8515625" y="-21.5"></rect><g class="label" style="" transform="translate(-77.3515625, -14)"><rect></rect><foreignobject height="28" width="154.703125"><div style="display: inline-block; white-space: nowrap;" xmlns="http://www.w3.org/1999/xhtml"><span class="nodeLabel">安装 GitHub App 授权</span></div></foreignobject></g></g><g class="node default default flowchart-label" data-id="C" data-node="true" id="flowchart-C-57" transform="translate(156, 207.5)"><rect class="basic label-container" height="43" rx="0" ry="0" style="" width="143" x="-71.5" y="-21.5"></rect><g class="label" style="" transform="translate(-64, -14)"><rect></rect><foreignobject height="28" width="128"><div style="display: inline-block; white-space: nowrap;" xmlns="http://www.w3.org/1999/xhtml"><span class="nodeLabel">输入仓库地址导入</span></div></foreignobject></g></g><g class="node default default flowchart-label" data-id="D" data-node="true" id="flowchart-D-59" transform="translate(156, 300.5)"><rect class="basic label-container" height="43" rx="0" ry="0" style="" width="159" x="-79.5" y="-21.5"></rect><g class="label" style="" transform="translate(-72, -14)"><rect></rect><foreignobject height="28" width="144"><div style="display: inline-block; white-space: nowrap;" xmlns="http://www.w3.org/1999/xhtml"><span class="nodeLabel">可视化选择翻译文件</span></div></foreignobject></g></g><g class="node default default flowchart-label" data-id="E" data-node="true" id="flowchart-E-61" transform="translate(156, 393.5)"><rect class="basic label-container" height="43" rx="0" ry="0" style="" width="179.75" x="-89.875" y="-21.5"></rect><g class="label" style="" transform="translate(-82.375, -14)"><rect></rect><foreignobject height="28" width="164.75"><div style="display: inline-block; white-space: nowrap;" xmlns="http://www.w3.org/1999/xhtml"><span class="nodeLabel">选择目标语言 + AI 模型</span></div></foreignobject></g></g><g class="node default default flowchart-label" data-id="F" data-node="true" id="flowchart-F-63" transform="translate(156, 486.5)"><rect class="basic label-container" height="43" rx="0" ry="0" style="" width="111" x="-55.5" y="-21.5"></rect><g class="label" style="" transform="translate(-48, -14)"><rect></rect><foreignobject height="28" width="96"><div style="display: inline-block; white-space: nowrap;" xmlns="http://www.w3.org/1999/xhtml"><span class="nodeLabel">点击开始翻译</span></div></foreignobject></g></g><g class="node default default flowchart-label" data-id="G" data-node="true" id="flowchart-G-65" transform="translate(156, 579.5)"><rect class="basic label-container" height="43" rx="0" ry="0" style="fill:#f3e5f5;stroke:#7b1fa2;" width="191.796875" x="-95.8984375" y="-21.5"></rect><g class="label" style="" transform="translate(-88.3984375, -14)"><rect></rect><foreignobject height="28" width="176.796875"><div style="display: inline-block; white-space: nowrap;" xmlns="http://www.w3.org/1999/xhtml"><span class="nodeLabel">AI 调用 OpenRouter 翻译</span></div></foreignobject></g></g><g class="node default default flowchart-label" data-id="H" data-node="true" id="flowchart-H-67" transform="translate(156, 672.5)"><rect class="basic label-container" height="43" rx="0" ry="0" style="" width="143" x="-71.5" y="-21.5"></rect><g class="label" style="" transform="translate(-64, -14)"><rect></rect><foreignobject height="28" width="128"><div style="display: inline-block; white-space: nowrap;" xmlns="http://www.w3.org/1999/xhtml"><span class="nodeLabel">实时展示翻译进度</span></div></foreignobject></g></g><g class="node default default flowchart-label" data-id="I" data-node="true" id="flowchart-I-69" transform="translate(156, 765.5)"><rect class="basic label-container" height="43" rx="0" ry="0" style="fill:#e8f5e9;stroke:#388e3c;" width="102.0625" x="-51.03125" y="-21.5"></rect><g class="label" style="" transform="translate(-43.53125, -14)"><rect></rect><foreignobject height="28" width="87.0625"><div style="display: inline-block; white-space: nowrap;" xmlns="http://www.w3.org/1999/xhtml"><span class="nodeLabel">自动创建 PR</span></div></foreignobject></g></g><g class="node default default flowchart-label" data-id="J" data-node="true" id="flowchart-J-71" transform="translate(156, 922)"><polygon class="label-container" points="85,0 170,-85 85,-170 0,-85" style="fill:#fff3e0;stroke:#f57c00;" transform="translate(-85,85)"></polygon><g class="label" style="" transform="translate(-56, -14)"><rect></rect><foreignobject height="28" width="112"><div style="display: inline-block; white-space: nowrap;" xmlns="http://www.w3.org/1999/xhtml"><span class="nodeLabel">仓库负责人审核</span></div></foreignobject></g></g><g class="node default default flowchart-label" data-id="K" data-node="true" id="flowchart-K-73" transform="translate(63.5, 1106.5)"><rect class="basic label-container" height="43" rx="0" ry="0" style="" width="127" x="-63.5" y="-21.5"></rect><g class="label" style="" transform="translate(-56, -14)"><rect></rect><foreignobject height="28" width="112"><div style="display: inline-block; white-space: nowrap;" xmlns="http://www.w3.org/1999/xhtml"><span class="nodeLabel">多语言文档上线</span></div></foreignobject></g></g><g class="node default default flowchart-label" data-id="L" data-node="true" id="flowchart-L-75" transform="translate(248.5, 1106.5)"><rect class="basic label-container" height="43" rx="0" ry="0" style="" width="143" x="-71.5" y="-21.5"></rect><g class="label" style="" transform="translate(-64, -14)"><rect></rect><foreignobject height="28" width="128"><div style="display: inline-block; white-space: nowrap;" xmlns="http://www.w3.org/1999/xhtml"><span class="nodeLabel">不合并，保留原文</span></div></foreignobject></g></g></g></g></g></svg>