<svg aria-roledescription="flowchart-v2" id="bytemd-mermaid-1789016510081-0" role="graphics-document document" style="max-width: 752.1875px;" viewbox="-8 -8 752.1875 1544" width="100%" xmlns="http://www.w3.org/2000/svg" xmlns:xlink="http://www.w3.org/1999/xlink"><g><marker class="marker flowchart" id="bytemd-mermaid-1789016510081-0_flowchart-pointEnd" markerheight="12" markerunits="userSpaceOnUse" markerwidth="12" orient="auto" refx="6" refy="5" viewbox="0 0 10 10"><path class="arrowMarkerPath" d="M 0 0 L 10 5 L 0 10 z" style="stroke-width: 1; stroke-dasharray: 1, 0;"></path></marker><marker class="marker flowchart" id="bytemd-mermaid-1789016510081-0_flowchart-pointStart" markerheight="12" markerunits="userSpaceOnUse" markerwidth="12" orient="auto" refx="4.5" refy="5" viewbox="0 0 10 10"><path class="arrowMarkerPath" d="M 0 5 L 10 10 L 10 0 z" style="stroke-width: 1; stroke-dasharray: 1, 0;"></path></marker><marker class="marker flowchart" id="bytemd-mermaid-1789016510081-0_flowchart-circleEnd" markerheight="11" markerunits="userSpaceOnUse" markerwidth="11" orient="auto" refx="11" refy="5" viewbox="0 0 10 10"><circle class="arrowMarkerPath" cx="5" cy="5" r="5" style="stroke-width: 1; stroke-dasharray: 1, 0;"></circle></marker><marker class="marker flowchart" id="bytemd-mermaid-1789016510081-0_flowchart-circleStart" markerheight="11" markerunits="userSpaceOnUse" markerwidth="11" orient="auto" refx="-1" refy="5" viewbox="0 0 10 10"><circle class="arrowMarkerPath" cx="5" cy="5" r="5" style="stroke-width: 1; stroke-dasharray: 1, 0;"></circle></marker><marker class="marker cross flowchart" id="bytemd-mermaid-1789016510081-0_flowchart-crossEnd" markerheight="11" markerunits="userSpaceOnUse" markerwidth="11" orient="auto" refx="12" refy="5.2" viewbox="0 0 11 11"><path class="arrowMarkerPath" d="M 1,1 l 9,9 M 10,1 l -9,9" style="stroke-width: 2; stroke-dasharray: 1, 0;"></path></marker><marker class="marker cross flowchart" id="bytemd-mermaid-1789016510081-0_flowchart-crossStart" markerheight="11" markerunits="userSpaceOnUse" markerwidth="11" orient="auto" refx="-1" refy="5.2" viewbox="0 0 11 11"><path class="arrowMarkerPath" d="M 1,1 l 9,9 M 10,1 l -9,9" style="stroke-width: 2; stroke-dasharray: 1, 0;"></path></marker><g class="root"><g class="clusters"></g><g class="edgePaths"><path class="edge-thickness-normal edge-pattern-solid flowchart-link LS-A LE-B" d="M364.727,43L364.727,47.167C364.727,51.333,364.727,59.667,364.727,67.117C364.727,74.567,364.727,81.133,364.727,84.417L364.727,87.7" id="L-A-B-0" marker-end="url(#bytemd-mermaid-1789016510081-0_flowchart-pointEnd)" style="fill:none;"></path><path class="edge-thickness-normal edge-pattern-solid flowchart-link LS-B LE-C" d="M364.727,136L364.727,140.167C364.727,144.333,364.727,152.667,364.727,160.117C364.727,167.567,364.727,174.133,364.727,177.417L364.727,180.7" id="L-B-C-0" marker-end="url(#bytemd-mermaid-1789016510081-0_flowchart-pointEnd)" style="fill:none;"></path><path class="edge-thickness-normal edge-pattern-solid flowchart-link LS-C LE-D" d="M364.727,229L364.727,233.167C364.727,237.333,364.727,245.667,364.727,253.117C364.727,260.567,364.727,267.133,364.727,270.417L364.727,273.7" id="L-C-D-0" marker-end="url(#bytemd-mermaid-1789016510081-0_flowchart-pointEnd)" style="fill:none;"></path><path class="edge-thickness-normal edge-pattern-solid flowchart-link LS-D LE-D1" d="M293.227,310.947L252.1,316.956C210.974,322.964,128.721,334.982,87.595,344.274C46.469,353.567,46.469,360.133,46.469,363.417L46.469,366.7" id="L-D-D1-0" marker-end="url(#bytemd-mermaid-1789016510081-0_flowchart-pointEnd)" style="fill:none;"></path><path class="edge-thickness-normal edge-pattern-solid flowchart-link LS-D LE-D2" d="M312.905,322L302.863,326.167C292.82,330.333,272.734,338.667,262.691,346.117C252.648,353.567,252.648,360.133,252.648,363.417L252.648,366.7" id="L-D-D2-0" marker-end="url(#bytemd-mermaid-1789016510081-0_flowchart-pointEnd)" style="fill:none;"></path><path class="edge-thickness-normal edge-pattern-solid flowchart-link LS-D LE-D3" d="M416.548,322L426.59,326.167C436.633,330.333,456.719,338.667,466.762,346.117C476.805,353.567,476.805,360.133,476.805,363.417L476.805,366.7" id="L-D-D3-0" marker-end="url(#bytemd-mermaid-1789016510081-0_flowchart-pointEnd)" style="fill:none;"></path><path class="edge-thickness-normal edge-pattern-solid flowchart-link LS-D LE-D4" d="M436.227,311.62L474.142,317.517C512.057,323.413,587.888,335.207,625.803,344.387C663.719,353.567,663.719,360.133,663.719,363.417L663.719,366.7" id="L-D-D4-0" marker-end="url(#bytemd-mermaid-1789016510081-0_flowchart-pointEnd)" style="fill:none;"></path><path class="edge-thickness-normal edge-pattern-solid flowchart-link LS-D1 LE-E" d="M46.469,415L46.469,419.167C46.469,423.333,46.469,431.667,81.45,440.944C116.432,450.222,186.394,460.444,221.376,465.555L256.357,470.666" id="L-D1-E-0" marker-end="url(#bytemd-mermaid-1789016510081-0_flowchart-pointEnd)" style="fill:none;"></path><path class="edge-thickness-normal edge-pattern-solid flowchart-link LS-D2 LE-E" d="M252.648,415L252.648,419.167C252.648,423.333,252.648,431.667,261.875,439.661C271.102,447.656,289.556,455.313,298.783,459.141L308.01,462.969" id="L-D2-E-0" marker-end="url(#bytemd-mermaid-1789016510081-0_flowchart-pointEnd)" style="fill:none;"></path><path class="edge-thickness-normal edge-pattern-solid flowchart-link LS-D3 LE-E" d="M476.805,415L476.805,419.167C476.805,423.333,476.805,431.667,467.578,439.661C458.351,447.656,439.897,455.313,430.67,459.141L421.443,462.969" id="L-D3-E-0" marker-end="url(#bytemd-mermaid-1789016510081-0_flowchart-pointEnd)" style="fill:none;"></path><path class="edge-thickness-normal edge-pattern-solid flowchart-link LS-D4 LE-E" d="M663.719,415L663.719,419.167C663.719,423.333,663.719,431.667,631.947,440.775C600.175,449.882,536.632,459.765,504.86,464.706L473.089,469.647" id="L-D4-E-0" marker-end="url(#bytemd-mermaid-1789016510081-0_flowchart-pointEnd)" style="fill:none;"></path><path class="edge-thickness-normal edge-pattern-solid flowchart-link LS-E LE-F" d="M364.727,508L364.727,512.167C364.727,516.333,364.727,524.667,364.727,532.117C364.727,539.567,364.727,546.133,364.727,549.417L364.727,552.7" id="L-E-F-0" marker-end="url(#bytemd-mermaid-1789016510081-0_flowchart-pointEnd)" style="fill:none;"></path><path class="edge-thickness-normal edge-pattern-solid flowchart-link LS-F LE-F1" d="M364.727,601L364.727,605.167C364.727,609.333,364.727,617.667,364.793,625.2C364.859,632.734,364.991,639.467,365.057,642.834L365.123,646.201" id="L-F-F1-0" marker-end="url(#bytemd-mermaid-1789016510081-0_flowchart-pointEnd)" style="fill:none;"></path><path class="edge-thickness-normal edge-pattern-solid flowchart-link LS-F1 LE-F2" d="M389.869,764.857L395.679,775.381C401.488,785.905,413.108,806.952,418.989,823.176C424.871,839.4,425.015,850.8,425.087,856.5L425.159,862.2" id="L-F1-F2-0" marker-end="url(#bytemd-mermaid-1789016510081-0_flowchart-pointEnd)" style="fill:none;"></path><path class="edge-thickness-normal edge-pattern-solid flowchart-link LS-F1 LE-X" d="M331.425,755.699L319.691,767.749C307.956,779.799,284.486,803.9,272.751,833.95C261.016,864,261.016,900,261.016,936C261.016,972,261.016,1008,263.144,1031.673C265.273,1055.346,269.531,1066.692,271.66,1072.365L273.789,1078.038" id="L-F1-X-0" marker-end="url(#bytemd-mermaid-1789016510081-0_flowchart-pointEnd)" style="fill:none;"></path><path class="edge-thickness-normal edge-pattern-solid flowchart-link LS-F2 LE-F3" d="M443.011,987.715L446.215,997.096C449.418,1006.477,455.824,1025.238,459.027,1040.236C462.23,1055.233,462.23,1066.467,462.23,1072.083L462.23,1077.7" id="L-F2-F3-0" marker-end="url(#bytemd-mermaid-1789016510081-0_flowchart-pointEnd)" style="fill:none;"></path><path class="edge-thickness-normal edge-pattern-solid flowchart-link LS-F2 LE-X" d="M395.654,975.927L386.998,987.272C378.342,998.618,361.03,1021.309,346.55,1038.527C332.07,1055.746,320.422,1067.491,314.597,1073.364L308.773,1079.237" id="L-F2-X-0" marker-end="url(#bytemd-mermaid-1789016510081-0_flowchart-pointEnd)" style="fill:none;"></path><path class="edge-thickness-normal edge-pattern-solid flowchart-link LS-F3 LE-G" d="M462.23,1126L462.23,1130.167C462.23,1134.333,462.23,1142.667,462.23,1150.117C462.23,1157.567,462.23,1164.133,462.23,1167.417L462.23,1170.7" id="L-F3-G-0" marker-end="url(#bytemd-mermaid-1789016510081-0_flowchart-pointEnd)" style="fill:none;"></path><path class="edge-thickness-normal edge-pattern-solid flowchart-link LS-G LE-H1" d="M416.028,1219L407.074,1223.167C398.12,1227.333,380.213,1235.667,371.259,1251.033C362.305,1266.4,362.305,1288.8,362.305,1300L362.305,1311.2" id="L-G-H1-0" marker-end="url(#bytemd-mermaid-1789016510081-0_flowchart-pointEnd)" style="fill:none;"></path><path class="edge-thickness-normal edge-pattern-solid flowchart-link LS-G LE-H2" d="M508.433,1219L517.387,1223.167C526.341,1227.333,544.248,1235.667,553.268,1243.2C562.288,1250.734,562.42,1257.467,562.486,1260.834L562.552,1264.201" id="L-G-H2-0" marker-end="url(#bytemd-mermaid-1789016510081-0_flowchart-pointEnd)" style="fill:none;"></path><path class="edge-thickness-normal edge-pattern-solid flowchart-link LS-H2 LE-H3" d="M533.692,1378.536L525.414,1389.78C517.136,1401.024,500.58,1423.512,492.302,1440.373C484.023,1457.233,484.023,1468.467,484.023,1474.083L484.023,1479.7" id="L-H2-H3-0" marker-end="url(#bytemd-mermaid-1789016510081-0_flowchart-pointEnd)" style="fill:none;"></path><path class="edge-thickness-normal edge-pattern-solid flowchart-link LS-H2 LE-H4" d="M586.998,1383.158L592.669,1393.632C598.34,1404.106,609.682,1425.053,615.353,1441.143C621.023,1457.233,621.023,1468.467,621.023,1474.083L621.023,1479.7" id="L-H2-H4-0" marker-end="url(#bytemd-mermaid-1789016510081-0_flowchart-pointEnd)" style="fill:none;"></path></g><g class="edgeLabels"><g class="edgeLabel"><g class="label" transform="translate(0, 0)"><foreignobject height="0" width="0"><div style="display: inline-block; white-space: nowrap;" xmlns="http://www.w3.org/1999/xhtml"><span class="edgeLabel"></span></div></foreignobject></g></g><g class="edgeLabel"><g class="label" transform="translate(0, 0)"><foreignobject height="0" width="0"><div style="display: inline-block; white-space: nowrap;" xmlns="http://www.w3.org/1999/xhtml"><span class="edgeLabel"></span></div></foreignobject></g></g><g class="edgeLabel"><g class="label" transform="translate(0, 0)"><foreignobject height="0" width="0"><div style="display: inline-block; white-space: nowrap;" xmlns="http://www.w3.org/1999/xhtml"><span class="edgeLabel"></span></div></foreignobject></g></g><g class="edgeLabel"><g class="label" transform="translate(0, 0)"><foreignobject height="0" width="0"><div style="display: inline-block; white-space: nowrap;" xmlns="http://www.w3.org/1999/xhtml"><span class="edgeLabel"></span></div></foreignobject></g></g><g class="edgeLabel"><g class="label" transform="translate(0, 0)"><foreignobject height="0" width="0"><div style="display: inline-block; white-space: nowrap;" xmlns="http://www.w3.org/1999/xhtml"><span class="edgeLabel"></span></div></foreignobject></g></g><g class="edgeLabel"><g class="label" transform="translate(0, 0)"><foreignobject height="0" width="0"><div style="display: inline-block; white-space: nowrap;" xmlns="http://www.w3.org/1999/xhtml"><span class="edgeLabel"></span></div></foreignobject></g></g><g class="edgeLabel"><g class="label" transform="translate(0, 0)"><foreignobject height="0" width="0"><div style="display: inline-block; white-space: nowrap;" xmlns="http://www.w3.org/1999/xhtml"><span class="edgeLabel"></span></div></foreignobject></g></g><g class="edgeLabel"><g class="label" transform="translate(0, 0)"><foreignobject height="0" width="0"><div style="display: inline-block; white-space: nowrap;" xmlns="http://www.w3.org/1999/xhtml"><span class="edgeLabel"></span></div></foreignobject></g></g><g class="edgeLabel"><g class="label" transform="translate(0, 0)"><foreignobject height="0" width="0"><div style="display: inline-block; white-space: nowrap;" xmlns="http://www.w3.org/1999/xhtml"><span class="edgeLabel"></span></div></foreignobject></g></g><g class="edgeLabel"><g class="label" transform="translate(0, 0)"><foreignobject height="0" width="0"><div style="display: inline-block; white-space: nowrap;" xmlns="http://www.w3.org/1999/xhtml"><span class="edgeLabel"></span></div></foreignobject></g></g><g class="edgeLabel"><g class="label" transform="translate(0, 0)"><foreignobject height="0" width="0"><div style="display: inline-block; white-space: nowrap;" xmlns="http://www.w3.org/1999/xhtml"><span class="edgeLabel"></span></div></foreignobject></g></g><g class="edgeLabel"><g class="label" transform="translate(0, 0)"><foreignobject height="0" width="0"><div style="display: inline-block; white-space: nowrap;" xmlns="http://www.w3.org/1999/xhtml"><span class="edgeLabel"></span></div></foreignobject></g></g><g class="edgeLabel"><g class="label" transform="translate(0, 0)"><foreignobject height="0" width="0"><div style="display: inline-block; white-space: nowrap;" xmlns="http://www.w3.org/1999/xhtml"><span class="edgeLabel"></span></div></foreignobject></g></g><g class="edgeLabel" transform="translate(424.7265625, 828)"><g class="label" transform="translate(-16, -14)"><foreignobject height="28" width="32"><div style="display: inline-block; white-space: nowrap;" xmlns="http://www.w3.org/1999/xhtml"><span class="edgeLabel">真实</span></div></foreignobject></g></g><g class="edgeLabel" transform="translate(261.015625, 936)"><g class="label" transform="translate(-16, -14)"><foreignobject height="28" width="32"><div style="display: inline-block; white-space: nowrap;" xmlns="http://www.w3.org/1999/xhtml"><span class="edgeLabel">虚假</span></div></foreignobject></g></g><g class="edgeLabel" transform="translate(462.23046875, 1044)"><g class="label" transform="translate(-29.6015625, -14)"><foreignobject height="28" width="59.203125"><div style="display: inline-block; white-space: nowrap;" xmlns="http://www.w3.org/1999/xhtml"><span class="edgeLabel">&gt;= 50 分</span></div></foreignobject></g></g><g class="edgeLabel" transform="translate(343.71875, 1044)"><g class="label" transform="translate(-25.40625, -14)"><foreignobject height="28" width="50.8125"><div style="display: inline-block; white-space: nowrap;" xmlns="http://www.w3.org/1999/xhtml"><span class="edgeLabel">&lt; 50 分</span></div></foreignobject></g></g><g class="edgeLabel"><g class="label" transform="translate(0, 0)"><foreignobject height="0" width="0"><div style="display: inline-block; white-space: nowrap;" xmlns="http://www.w3.org/1999/xhtml"><span class="edgeLabel"></span></div></foreignobject></g></g><g class="edgeLabel"><g class="label" transform="translate(0, 0)"><foreignobject height="0" width="0"><div style="display: inline-block; white-space: nowrap;" xmlns="http://www.w3.org/1999/xhtml"><span class="edgeLabel"></span></div></foreignobject></g></g><g class="edgeLabel"><g class="label" transform="translate(0, 0)"><foreignobject height="0" width="0"><div style="display: inline-block; white-space: nowrap;" xmlns="http://www.w3.org/1999/xhtml"><span class="edgeLabel"></span></div></foreignobject></g></g><g class="edgeLabel" transform="translate(484.0234375, 1446)"><g class="label" transform="translate(-47.4609375, -14)"><foreignobject height="28" width="94.921875"><div style="display: inline-block; white-space: nowrap;" xmlns="http://www.w3.org/1999/xhtml"><span class="edgeLabel">high / urgent</span></div></foreignobject></g></g><g class="edgeLabel" transform="translate(621.0234375, 1446)"><g class="label" transform="translate(-50.375, -14)"><foreignobject height="28" width="100.75"><div style="display: inline-block; white-space: nowrap;" xmlns="http://www.w3.org/1999/xhtml"><span class="edgeLabel">medium / low</span></div></foreignobject></g></g></g><g class="nodes"><g class="node default default flowchart-label" data-id="A" data-node="true" id="flowchart-A-57" transform="translate(364.7265625, 21.5)"><rect class="basic label-container" height="43" rx="0" ry="0" style="fill:#e3f2fd;stroke:#1976d2;" width="159" x="-79.5" y="-21.5"></rect><g class="label" style="" transform="translate(-72, -14)"><rect></rect><foreignobject height="28" width="144"><div style="display: inline-block; white-space: nowrap;" xmlns="http://www.w3.org/1999/xhtml"><span class="nodeLabel">用户配置监控关键词</span></div></foreignobject></g></g><g class="node default default flowchart-label" data-id="B" data-node="true" id="flowchart-B-58" transform="translate(364.7265625, 114.5)"><rect class="basic label-container" height="43" rx="0" ry="0" style="" width="180.609375" x="-90.3046875" y="-21.5"></rect><g class="label" style="" transform="translate(-82.8046875, -14)"><rect></rect><foreignobject height="28" width="165.609375"><div style="display: inline-block; white-space: nowrap;" xmlns="http://www.w3.org/1999/xhtml"><span class="nodeLabel">定时任务触发 每30分钟</span></div></foreignobject></g></g><g class="node default default flowchart-label" data-id="C" data-node="true" id="flowchart-C-60" transform="translate(364.7265625, 207.5)"><rect class="basic label-container" height="43" rx="0" ry="0" style="" width="214.53125" x="-107.265625" y="-21.5"></rect><g class="label" style="" transform="translate(-99.765625, -14)"><rect></rect><foreignobject height="28" width="199.53125"><div style="display: inline-block; white-space: nowrap;" xmlns="http://www.w3.org/1999/xhtml"><span class="nodeLabel">AI 查询扩展 生成关键词变体</span></div></foreignobject></g></g><g class="node default default flowchart-label" data-id="D" data-node="true" id="flowchart-D-62" transform="translate(364.7265625, 300.5)"><rect class="basic label-container" height="43" rx="0" ry="0" style="" width="143" x="-71.5" y="-21.5"></rect><g class="label" style="" transform="translate(-64, -14)"><rect></rect><foreignobject height="28" width="128"><div style="display: inline-block; white-space: nowrap;" xmlns="http://www.w3.org/1999/xhtml"><span class="nodeLabel">多数据源并行采集</span></div></foreignobject></g></g><g class="node default default flowchart-label" data-id="D1" data-node="true" id="flowchart-D1-64" transform="translate(46.46875, 393.5)"><rect class="basic label-container" height="43" rx="0" ry="0" style="" width="92.9375" x="-46.46875" y="-21.5"></rect><g class="label" style="" transform="translate(-38.96875, -14)"><rect></rect><foreignobject height="28" width="77.9375"><div style="display: inline-block; white-space: nowrap;" xmlns="http://www.w3.org/1999/xhtml"><span class="nodeLabel">Twitter API</span></div></foreignobject></g></g><g class="node default default flowchart-label" data-id="D2" data-node="true" id="flowchart-D2-66" transform="translate(252.6484375, 393.5)"><rect class="basic label-container" height="43" rx="0" ry="0" style="" width="219.421875" x="-109.7109375" y="-21.5"></rect><g class="label" style="" transform="translate(-102.2109375, -14)"><rect></rect><foreignobject height="28" width="204.421875"><div style="display: inline-block; white-space: nowrap;" xmlns="http://www.w3.org/1999/xhtml"><span class="nodeLabel">Bing / Google / DuckDuckGo</span></div></foreignobject></g></g><g class="node default default flowchart-label" data-id="D3" data-node="true" id="flowchart-D3-68" transform="translate(476.8046875, 393.5)"><rect class="basic label-container" height="43" rx="0" ry="0" style="" width="128.890625" x="-64.4453125" y="-21.5"></rect><g class="label" style="" transform="translate(-56.9453125, -14)"><rect></rect><foreignobject height="28" width="113.890625"><div style="display: inline-block; white-space: nowrap;" xmlns="http://www.w3.org/1999/xhtml"><span class="nodeLabel">HackerNews API</span></div></foreignobject></g></g><g class="node default default flowchart-label" data-id="D4" data-node="true" id="flowchart-D4-70" transform="translate(663.71875, 393.5)"><rect class="basic label-container" height="43" rx="0" ry="0" style="" width="144.9375" x="-72.46875" y="-21.5"></rect><g class="label" style="" transform="translate(-64.96875, -14)"><rect></rect><foreignobject height="28" width="129.9375"><div style="display: inline-block; white-space: nowrap;" xmlns="http://www.w3.org/1999/xhtml"><span class="nodeLabel">搜狗 / B 站 / 微博</span></div></foreignobject></g></g><g class="node default default flowchart-label" data-id="E" data-node="true" id="flowchart-E-75" transform="translate(364.7265625, 486.5)"><rect class="basic label-container" height="43" rx="0" ry="0" style="" width="206.25" x="-103.125" y="-21.5"></rect><g class="label" style="" transform="translate(-95.625, -14)"><rect></rect><foreignobject height="28" width="191.25"><div style="display: inline-block; white-space: nowrap;" xmlns="http://www.w3.org/1999/xhtml"><span class="nodeLabel">结果去重 + 7 天新鲜度过滤</span></div></foreignobject></g></g><g class="node default default flowchart-label" data-id="F" data-node="true" id="flowchart-F-77" transform="translate(364.7265625, 579.5)"><rect class="basic label-container" height="43" rx="0" ry="0" style="fill:#f3e5f5;stroke:#7b1fa2;" width="97.71875" x="-48.859375" y="-21.5"></rect><g class="label" style="" transform="translate(-41.359375, -14)"><rect></rect><foreignobject height="28" width="82.71875"><div style="display: inline-block; white-space: nowrap;" xmlns="http://www.w3.org/1999/xhtml"><span class="nodeLabel">AI 内容分析</span></div></foreignobject></g></g><g class="node default default flowchart-label" data-id="F1" data-node="true" id="flowchart-F1-79" transform="translate(364.7265625, 720)"><polygon class="label-container" points="69,0 138,-69 69,-138 0,-69" style="" transform="translate(-69,69)"></polygon><g class="label" style="" transform="translate(-40, -14)"><rect></rect><foreignobject height="28" width="80"><div style="display: inline-block; white-space: nowrap;" xmlns="http://www.w3.org/1999/xhtml"><span class="nodeLabel">真实性判断</span></div></foreignobject></g></g><g class="node default default flowchart-label" data-id="F2" data-node="true" id="flowchart-F2-81" transform="translate(424.7265625, 936)"><polygon class="label-container" points="69,0 138,-69 69,-138 0,-69" style="" transform="translate(-69,69)"></polygon><g class="label" style="" transform="translate(-40, -14)"><rect></rect><foreignobject height="28" width="80"><div style="display: inline-block; white-space: nowrap;" xmlns="http://www.w3.org/1999/xhtml"><span class="nodeLabel">相关性评分</span></div></foreignobject></g></g><g class="node default default flowchart-label" data-id="X" data-node="true" id="flowchart-X-83" transform="translate(283.71875, 1104.5)"><rect class="basic label-container" height="43" rx="0" ry="0" style="" width="47" x="-23.5" y="-21.5"></rect><g class="label" style="" transform="translate(-16, -14)"><rect></rect><foreignobject height="28" width="32"><div style="display: inline-block; white-space: nowrap;" xmlns="http://www.w3.org/1999/xhtml"><span class="nodeLabel">丢弃</span></div></foreignobject></g></g><g class="node default default flowchart-label" data-id="F3" data-node="true" id="flowchart-F3-85" transform="translate(462.23046875, 1104.5)"><rect class="basic label-container" height="43" rx="0" ry="0" style="" width="177.03125" x="-88.515625" y="-21.5"></rect><g class="label" style="" transform="translate(-81.015625, -14)"><rect></rect><foreignobject height="28" width="162.03125"><div style="display: inline-block; white-space: nowrap;" xmlns="http://www.w3.org/1999/xhtml"><span class="nodeLabel">重要性分级 + 摘要生成</span></div></foreignobject></g></g><g class="node default default flowchart-label" data-id="G" data-node="true" id="flowchart-G-89" transform="translate(462.23046875, 1197.5)"><rect class="basic label-container" height="43" rx="0" ry="0" style="fill:#e8f5e9;stroke:#388e3c;" width="111" x="-55.5" y="-21.5"></rect><g class="label" style="" transform="translate(-48, -14)"><rect></rect><foreignobject height="28" width="96"><div style="display: inline-block; white-space: nowrap;" xmlns="http://www.w3.org/1999/xhtml"><span class="nodeLabel">保存到数据库</span></div></foreignobject></g></g><g class="node default default flowchart-label" data-id="H1" data-node="true" id="flowchart-H1-91" transform="translate(362.3046875, 1338)"><rect class="basic label-container" height="43" rx="0" ry="0" style="" width="161.703125" x="-80.8515625" y="-21.5"></rect><g class="label" style="" transform="translate(-73.3515625, -14)"><rect></rect><foreignobject height="28" width="146.703125"><div style="display: inline-block; white-space: nowrap;" xmlns="http://www.w3.org/1999/xhtml"><span class="nodeLabel">WebSocket 实时推送</span></div></foreignobject></g></g><g class="node default default flowchart-label" data-id="H2" data-node="true" id="flowchart-H2-93" transform="translate(562.15625, 1338)"><polygon class="label-container" points="69,0 138,-69 69,-138 0,-69" style="" transform="translate(-69,69)"></polygon><g class="label" style="" transform="translate(-40, -14)"><rect></rect><foreignobject height="28" width="80"><div style="display: inline-block; white-space: nowrap;" xmlns="http://www.w3.org/1999/xhtml"><span class="nodeLabel">重要性级别</span></div></foreignobject></g></g><g class="node default default flowchart-label" data-id="H3" data-node="true" id="flowchart-H3-95" transform="translate(484.0234375, 1506.5)"><rect class="basic label-container" height="43" rx="0" ry="0" style="fill:#fff3e0;stroke:#f57c00;" width="79" x="-39.5" y="-21.5"></rect><g class="label" style="" transform="translate(-32, -14)"><rect></rect><foreignobject height="28" width="64"><div style="display: inline-block; white-space: nowrap;" xmlns="http://www.w3.org/1999/xhtml"><span class="nodeLabel">邮件通知</span></div></foreignobject></g></g><g class="node default default flowchart-label" data-id="H4" data-node="true" id="flowchart-H4-97" transform="translate(621.0234375, 1506.5)"><rect class="basic label-container" height="43" rx="0" ry="0" style="" width="95" x="-47.5" y="-21.5"></rect><g class="label" style="" transform="translate(-40, -14)"><rect></rect><foreignobject height="28" width="80"><div style="display: inline-block; white-space: nowrap;" xmlns="http://www.w3.org/1999/xhtml"><span class="nodeLabel">仅站内通知</span></div></foreignobject></g></g></g></g></g></svg>