<svg aria-roledescription="flowchart-v2" id="bytemd-mermaid-1789016765307-4" role="graphics-document document" style="max-width: 929.8125px;" viewbox="-8 -8 929.8125 455" width="100%" xmlns="http://www.w3.org/2000/svg" xmlns:xlink="http://www.w3.org/1999/xlink"><g><marker class="marker flowchart" id="bytemd-mermaid-1789016765307-4_flowchart-pointEnd" markerheight="12" markerunits="userSpaceOnUse" markerwidth="12" orient="auto" refx="6" refy="5" viewbox="0 0 10 10"><path class="arrowMarkerPath" d="M 0 0 L 10 5 L 0 10 z" style="stroke-width: 1; stroke-dasharray: 1, 0;"></path></marker><marker class="marker flowchart" id="bytemd-mermaid-1789016765307-4_flowchart-pointStart" markerheight="12" markerunits="userSpaceOnUse" markerwidth="12" orient="auto" refx="4.5" refy="5" viewbox="0 0 10 10"><path class="arrowMarkerPath" d="M 0 5 L 10 10 L 10 0 z" style="stroke-width: 1; stroke-dasharray: 1, 0;"></path></marker><marker class="marker flowchart" id="bytemd-mermaid-1789016765307-4_flowchart-circleEnd" markerheight="11" markerunits="userSpaceOnUse" markerwidth="11" orient="auto" refx="11" refy="5" viewbox="0 0 10 10"><circle class="arrowMarkerPath" cx="5" cy="5" r="5" style="stroke-width: 1; stroke-dasharray: 1, 0;"></circle></marker><marker class="marker flowchart" id="bytemd-mermaid-1789016765307-4_flowchart-circleStart" markerheight="11" markerunits="userSpaceOnUse" markerwidth="11" orient="auto" refx="-1" refy="5" viewbox="0 0 10 10"><circle class="arrowMarkerPath" cx="5" cy="5" r="5" style="stroke-width: 1; stroke-dasharray: 1, 0;"></circle></marker><marker class="marker cross flowchart" id="bytemd-mermaid-1789016765307-4_flowchart-crossEnd" markerheight="11" markerunits="userSpaceOnUse" markerwidth="11" orient="auto" refx="12" refy="5.2" viewbox="0 0 11 11"><path class="arrowMarkerPath" d="M 1,1 l 9,9 M 10,1 l -9,9" style="stroke-width: 2; stroke-dasharray: 1, 0;"></path></marker><marker class="marker cross flowchart" id="bytemd-mermaid-1789016765307-4_flowchart-crossStart" markerheight="11" markerunits="userSpaceOnUse" markerwidth="11" orient="auto" refx="-1" refy="5.2" viewbox="0 0 11 11"><path class="arrowMarkerPath" d="M 1,1 l 9,9 M 10,1 l -9,9" style="stroke-width: 2; stroke-dasharray: 1, 0;"></path></marker><g class="root"><g class="clusters"><g class="cluster default flowchart-label" id="下游"><rect height="299" rx="0" ry="0" style="" width="192" x="721.8125" y="60"></rect><g class="cluster-label" transform="translate(721.8125, 60)"><foreignobject height="28" width="192"><div style="display: inline-block; white-space: nowrap;" xmlns="http://www.w3.org/1999/xhtml"><span class="nodeLabel">下游模块（无需关心来源）</span></div></foreignobject></g></g><g class="cluster default flowchart-label" id="统一格式"><rect height="402" rx="0" ry="0" style="" width="226.109375" x="483.84375" y="12"></rect><g class="cluster-label" transform="translate(532.796875, 12)"><foreignobject height="28" width="128.203125"><div style="display: inline-block; white-space: nowrap;" xmlns="http://www.w3.org/1999/xhtml"><span class="nodeLabel">统一 SearchResult</span></div></foreignobject></g></g><g class="cluster default flowchart-label" id="适配层"><rect height="425" rx="0" ry="0" style="" width="169.78125" x="264.0625" y="14"></rect><g class="cluster-label" transform="translate(296.6953125, 14)"><foreignobject height="28" width="104.515625"><div style="display: inline-block; white-space: nowrap;" xmlns="http://www.w3.org/1999/xhtml"><span class="nodeLabel">Service 适配层</span></div></foreignobject></g></g><g class="cluster default flowchart-label" id="数据源"><rect height="439" rx="0" ry="0" style="" width="214.0625" x="0" y="0"></rect><g class="cluster-label" transform="translate(27.03125, 0)"><foreignobject height="28" width="160"><div style="display: inline-block; white-space: nowrap;" xmlns="http://www.w3.org/1999/xhtml"><span class="nodeLabel">各数据源（格式各异）</span></div></foreignobject></g></g></g><g class="edgePaths"><path class="edge-thickness-normal edge-pattern-solid flowchart-link LS-T LE-T1" d="M189.063,84.5L193.229,84.5C197.396,84.5,205.729,84.5,214.063,84.5C222.396,84.5,230.729,84.5,239.063,84.5C247.396,84.5,255.729,84.5,266.326,84.5C276.923,84.5,289.784,84.5,296.215,84.5L302.645,84.5" id="L-T-T1-0" marker-end="url(#bytemd-mermaid-1789016765307-4_flowchart-pointEnd)" style="fill:none;"></path><path class="edge-thickness-normal edge-pattern-solid flowchart-link LS-B LE-B1" d="M151.75,233.5L162.135,233.5C172.521,233.5,193.292,233.5,207.844,233.5C222.396,233.5,230.729,233.5,239.063,233.5C247.396,233.5,255.729,233.5,263.179,233.5C270.629,233.5,277.196,233.5,280.479,233.5L283.763,233.5" id="L-B-B1-0" marker-end="url(#bytemd-mermaid-1789016765307-4_flowchart-pointEnd)" style="fill:none;"></path><path class="edge-thickness-normal edge-pattern-solid flowchart-link LS-S LE-S1" d="M165.234,368.5L173.372,368.5C181.51,368.5,197.786,368.5,210.091,368.5C222.396,368.5,230.729,368.5,239.063,368.5C247.396,368.5,255.729,368.5,266.479,368.5C277.228,368.5,290.394,368.5,296.977,368.5L303.559,368.5" id="L-S-S1-0" marker-end="url(#bytemd-mermaid-1789016765307-4_flowchart-pointEnd)" style="fill:none;"></path><path class="edge-thickness-normal edge-pattern-solid flowchart-link LS-T1 LE-R" d="M389.961,84.5L397.275,84.5C404.589,84.5,419.216,84.5,430.697,84.5C442.177,84.5,450.51,84.5,458.844,84.5C467.177,84.5,475.51,84.5,491.726,100.38C507.941,116.259,532.039,148.019,544.088,163.898L556.136,179.778" id="L-T1-R-0" marker-end="url(#bytemd-mermaid-1789016765307-4_flowchart-pointEnd)" style="fill:none;"></path><path class="edge-thickness-normal edge-pattern-solid flowchart-link LS-B1 LE-R" d="M408.844,233.5L413.01,233.5C417.177,233.5,425.51,233.5,433.844,233.5C442.177,233.5,450.51,233.5,458.844,233.5C467.177,233.5,475.51,233.5,482.96,233.5C490.41,233.5,496.977,233.5,500.26,233.5L503.544,233.5" id="L-B1-R-0" marker-end="url(#bytemd-mermaid-1789016765307-4_flowchart-pointEnd)" style="fill:none;"></path><path class="edge-thickness-normal edge-pattern-solid flowchart-link LS-S1 LE-R" d="M389.047,368.5L396.513,368.5C403.979,368.5,418.911,368.5,430.544,368.5C442.177,368.5,450.51,368.5,458.844,368.5C467.177,368.5,475.51,368.5,491.043,354.927C506.577,341.354,529.309,314.209,540.676,300.636L552.042,287.063" id="L-S1-R-0" marker-end="url(#bytemd-mermaid-1789016765307-4_flowchart-pointEnd)" style="fill:none;"></path><path class="edge-thickness-normal edge-pattern-solid flowchart-link LS-R LE-D1" d="M644.729,184L655.6,172.75C666.471,161.5,688.212,139,703.249,127.75C718.286,116.5,726.62,116.5,734.953,116.5C743.286,116.5,751.62,116.5,760.63,116.5C769.64,116.5,779.326,116.5,784.169,116.5L789.013,116.5" id="L-R-D1-0" marker-end="url(#bytemd-mermaid-1789016765307-4_flowchart-pointEnd)" style="fill:none;"></path><path class="edge-thickness-normal edge-pattern-solid flowchart-link LS-R LE-D2" d="M684.953,214.807L689.12,213.923C693.286,213.038,701.62,211.269,709.953,210.385C718.286,209.5,726.62,209.5,734.953,209.5C743.286,209.5,751.62,209.5,759.07,209.5C766.52,209.5,773.086,209.5,776.37,209.5L779.653,209.5" id="L-R-D2-0" marker-end="url(#bytemd-mermaid-1789016765307-4_flowchart-pointEnd)" style="fill:none;"></path><path class="edge-thickness-normal edge-pattern-solid flowchart-link LS-R LE-D3" d="M678.003,283L683.328,286.25C688.653,289.5,699.303,296,708.795,299.25C718.286,302.5,726.62,302.5,734.953,302.5C743.286,302.5,751.62,302.5,760.63,302.5C769.64,302.5,779.326,302.5,784.169,302.5L789.013,302.5" id="L-R-D3-0" marker-end="url(#bytemd-mermaid-1789016765307-4_flowchart-pointEnd)" style="fill:none;"></path></g><g class="edgeLabels"><g class="edgeLabel"><g class="label" transform="translate(0, 0)"><foreignobject height="0" width="0"><div style="display: inline-block; white-space: nowrap;" xmlns="http://www.w3.org/1999/xhtml"><span class="edgeLabel"></span></div></foreignobject></g></g><g class="edgeLabel"><g class="label" transform="translate(0, 0)"><foreignobject height="0" width="0"><div style="display: inline-block; white-space: nowrap;" xmlns="http://www.w3.org/1999/xhtml"><span class="edgeLabel"></span></div></foreignobject></g></g><g class="edgeLabel"><g class="label" transform="translate(0, 0)"><foreignobject height="0" width="0"><div style="display: inline-block; white-space: nowrap;" xmlns="http://www.w3.org/1999/xhtml"><span class="edgeLabel"></span></div></foreignobject></g></g><g class="edgeLabel"><g class="label" transform="translate(0, 0)"><foreignobject height="0" width="0"><div style="display: inline-block; white-space: nowrap;" xmlns="http://www.w3.org/1999/xhtml"><span class="edgeLabel"></span></div></foreignobject></g></g><g class="edgeLabel"><g class="label" transform="translate(0, 0)"><foreignobject height="0" width="0"><div style="display: inline-block; white-space: nowrap;" xmlns="http://www.w3.org/1999/xhtml"><span class="edgeLabel"></span></div></foreignobject></g></g><g class="edgeLabel"><g class="label" transform="translate(0, 0)"><foreignobject height="0" width="0"><div style="display: inline-block; white-space: nowrap;" xmlns="http://www.w3.org/1999/xhtml"><span class="edgeLabel"></span></div></foreignobject></g></g><g class="edgeLabel"><g class="label" transform="translate(0, 0)"><foreignobject height="0" width="0"><div style="display: inline-block; white-space: nowrap;" xmlns="http://www.w3.org/1999/xhtml"><span class="edgeLabel"></span></div></foreignobject></g></g><g class="edgeLabel"><g class="label" transform="translate(0, 0)"><foreignobject height="0" width="0"><div style="display: inline-block; white-space: nowrap;" xmlns="http://www.w3.org/1999/xhtml"><span class="edgeLabel"></span></div></foreignobject></g></g><g class="edgeLabel"><g class="label" transform="translate(0, 0)"><foreignobject height="0" width="0"><div style="display: inline-block; white-space: nowrap;" xmlns="http://www.w3.org/1999/xhtml"><span class="edgeLabel"></span></div></foreignobject></g></g></g><g class="nodes"><g class="node default default flowchart-label" data-id="D1" data-node="true" id="flowchart-D1-217" transform="translate(817.8125, 116.5)"><rect class="basic label-container" height="43" rx="0" ry="0" style="" width="47" x="-23.5" y="-21.5"></rect><g class="label" style="" transform="translate(-16, -14)"><rect></rect><foreignobject height="28" width="32"><div style="display: inline-block; white-space: nowrap;" xmlns="http://www.w3.org/1999/xhtml"><span class="nodeLabel">去重</span></div></foreignobject></g></g><g class="node default default flowchart-label" data-id="D2" data-node="true" id="flowchart-D2-219" transform="translate(817.8125, 209.5)"><rect class="basic label-container" height="43" rx="0" ry="0" style="" width="65.71875" x="-32.859375" y="-21.5"></rect><g class="label" style="" transform="translate(-25.359375, -14)"><rect></rect><foreignobject height="28" width="50.71875"><div style="display: inline-block; white-space: nowrap;" xmlns="http://www.w3.org/1999/xhtml"><span class="nodeLabel">AI 分析</span></div></foreignobject></g></g><g class="node default default flowchart-label" data-id="D3" data-node="true" id="flowchart-D3-221" transform="translate(817.8125, 302.5)"><rect class="basic label-container" height="43" rx="0" ry="0" style="" width="47" x="-23.5" y="-21.5"></rect><g class="label" style="" transform="translate(-16, -14)"><rect></rect><foreignobject height="28" width="32"><div style="display: inline-block; white-space: nowrap;" xmlns="http://www.w3.org/1999/xhtml"><span class="nodeLabel">入库</span></div></foreignobject></g></g><g class="node default default flowchart-label" data-id="R" data-node="true" id="flowchart-R-211" transform="translate(596.8984375, 233.5)"><rect class="basic label-container" height="99" rx="0" ry="0" style="" width="176.109375" x="-88.0546875" y="-49.5"></rect><g class="label" style="" transform="translate(-80.5546875, -42)"><rect></rect><foreignobject height="84" width="161.109375"><div style="display: inline-block; white-space: nowrap;" xmlns="http://www.w3.org/1999/xhtml"><span class="nodeLabel">title / url / source<br/>likeCount / viewCount<br/>publishedAt / ...</span></div></foreignobject></g></g><g class="node default default flowchart-label" data-id="T1" data-node="true" id="flowchart-T1-205" transform="translate(348.953125, 84.5)"><rect class="basic label-container" height="71" rx="0" ry="0" style="" width="82.015625" x="-41.0078125" y="-35.5"></rect><g class="label" style="" transform="translate(-33.5078125, -28)"><rect></rect><foreignobject height="56" width="67.015625"><div style="display: inline-block; white-space: nowrap;" xmlns="http://www.w3.org/1999/xhtml"><span class="nodeLabel">twitter.ts<br/>格式映射</span></div></foreignobject></g></g><g class="node default default flowchart-label" data-id="B1" data-node="true" id="flowchart-B1-207" transform="translate(348.953125, 233.5)"><rect class="basic label-container" height="71" rx="0" ry="0" style="" width="119.78125" x="-59.890625" y="-35.5"></rect><g class="label" style="" transform="translate(-52.390625, -28)"><rect></rect><foreignobject height="56" width="104.78125"><div style="display: inline-block; white-space: nowrap;" xmlns="http://www.w3.org/1999/xhtml"><span class="nodeLabel">chinaSearch.ts<br/>格式映射</span></div></foreignobject></g></g><g class="node default default flowchart-label" data-id="S1" data-node="true" id="flowchart-S1-209" transform="translate(348.953125, 368.5)"><rect class="basic label-container" height="71" rx="0" ry="0" style="" width="80.1875" x="-40.09375" y="-35.5"></rect><g class="label" style="" transform="translate(-32.59375, -28)"><rect></rect><foreignobject height="56" width="65.1875"><div style="display: inline-block; white-space: nowrap;" xmlns="http://www.w3.org/1999/xhtml"><span class="nodeLabel">search.ts<br/>格式映射</span></div></foreignobject></g></g><g class="node default default flowchart-label" data-id="T" data-node="true" id="flowchart-T-201" transform="translate(107.03125, 84.5)"><rect class="basic label-container" height="99" rx="0" ry="0" style="" width="164.0625" x="-82.03125" y="-49.5"></rect><g class="label" style="" transform="translate(-74.53125, -42)"><rect></rect><foreignobject height="84" width="149.0625"><div style="display: inline-block; white-space: nowrap;" xmlns="http://www.w3.org/1999/xhtml"><span class="nodeLabel">Twitter<br/>tweet.likeCount<br/>author.isBlueVerified</span></div></foreignobject></g></g><g class="node default default flowchart-label" data-id="B" data-node="true" id="flowchart-B-202" transform="translate(107.03125, 233.5)"><rect class="basic label-container" height="99" rx="0" ry="0" style="" width="89.4375" x="-44.71875" y="-49.5"></rect><g class="label" style="" transform="translate(-37.21875, -42)"><rect></rect><foreignobject height="84" width="74.4375"><div style="display: inline-block; white-space: nowrap;" xmlns="http://www.w3.org/1999/xhtml"><span class="nodeLabel">B 站<br/>video.play<br/>video.like</span></div></foreignobject></g></g><g class="node default default flowchart-label" data-id="S" data-node="true" id="flowchart-S-203" transform="translate(107.03125, 368.5)"><rect class="basic label-container" height="71" rx="0" ry="0" style="" width="116.40625" x="-58.203125" y="-35.5"></rect><g class="label" style="" transform="translate(-50.703125, -28)"><rect></rect><foreignobject height="56" width="101.40625"><div style="display: inline-block; white-space: nowrap;" xmlns="http://www.w3.org/1999/xhtml"><span class="nodeLabel">搜索引擎<br/>title + snippet</span></div></foreignobject></g></g></g></g></g></svg>