<svg aria-roledescription="flowchart-v2" id="bytemd-mermaid-1789016765305-3" role="graphics-document document" style="max-width: 233.03125px;" viewbox="-8 -8 233.03125 757" width="100%" xmlns="http://www.w3.org/2000/svg" xmlns:xlink="http://www.w3.org/1999/xlink"><g><marker class="marker flowchart" id="bytemd-mermaid-1789016765305-3_flowchart-pointEnd" markerheight="12" markerunits="userSpaceOnUse" markerwidth="12" orient="auto" refx="6" refy="5" viewbox="0 0 10 10"><path class="arrowMarkerPath" d="M 0 0 L 10 5 L 0 10 z" style="stroke-width: 1; stroke-dasharray: 1, 0;"></path></marker><marker class="marker flowchart" id="bytemd-mermaid-1789016765305-3_flowchart-pointStart" markerheight="12" markerunits="userSpaceOnUse" markerwidth="12" orient="auto" refx="4.5" refy="5" viewbox="0 0 10 10"><path class="arrowMarkerPath" d="M 0 5 L 10 10 L 10 0 z" style="stroke-width: 1; stroke-dasharray: 1, 0;"></path></marker><marker class="marker flowchart" id="bytemd-mermaid-1789016765305-3_flowchart-circleEnd" markerheight="11" markerunits="userSpaceOnUse" markerwidth="11" orient="auto" refx="11" refy="5" viewbox="0 0 10 10"><circle class="arrowMarkerPath" cx="5" cy="5" r="5" style="stroke-width: 1; stroke-dasharray: 1, 0;"></circle></marker><marker class="marker flowchart" id="bytemd-mermaid-1789016765305-3_flowchart-circleStart" markerheight="11" markerunits="userSpaceOnUse" markerwidth="11" orient="auto" refx="-1" refy="5" viewbox="0 0 10 10"><circle class="arrowMarkerPath" cx="5" cy="5" r="5" style="stroke-width: 1; stroke-dasharray: 1, 0;"></circle></marker><marker class="marker cross flowchart" id="bytemd-mermaid-1789016765305-3_flowchart-crossEnd" markerheight="11" markerunits="userSpaceOnUse" markerwidth="11" orient="auto" refx="12" refy="5.2" viewbox="0 0 11 11"><path class="arrowMarkerPath" d="M 1,1 l 9,9 M 10,1 l -9,9" style="stroke-width: 2; stroke-dasharray: 1, 0;"></path></marker><marker class="marker cross flowchart" id="bytemd-mermaid-1789016765305-3_flowchart-crossStart" markerheight="11" markerunits="userSpaceOnUse" markerwidth="11" orient="auto" refx="-1" refy="5.2" viewbox="0 0 11 11"><path class="arrowMarkerPath" d="M 1,1 l 9,9 M 10,1 l -9,9" style="stroke-width: 2; stroke-dasharray: 1, 0;"></path></marker><g class="root"><g class="clusters"></g><g class="edgePaths"><path class="edge-thickness-normal edge-pattern-solid flowchart-link LS-A LE-B" d="M108.516,43L108.516,47.167C108.516,51.333,108.516,59.667,108.516,67.117C108.516,74.567,108.516,81.133,108.516,84.417L108.516,87.7" id="L-A-B-0" marker-end="url(#bytemd-mermaid-1789016765305-3_flowchart-pointEnd)" style="fill:none;"></path><path class="edge-thickness-normal edge-pattern-solid flowchart-link LS-B LE-C" d="M108.516,164L108.516,168.167C108.516,172.333,108.516,180.667,108.516,188.117C108.516,195.567,108.516,202.133,108.516,205.417L108.516,208.7" id="L-B-C-0" marker-end="url(#bytemd-mermaid-1789016765305-3_flowchart-pointEnd)" style="fill:none;"></path><path class="edge-thickness-normal edge-pattern-solid flowchart-link LS-C LE-D" d="M108.516,285L108.516,289.167C108.516,293.333,108.516,301.667,108.516,309.117C108.516,316.567,108.516,323.133,108.516,326.417L108.516,329.7" id="L-C-D-0" marker-end="url(#bytemd-mermaid-1789016765305-3_flowchart-pointEnd)" style="fill:none;"></path><path class="edge-thickness-normal edge-pattern-solid flowchart-link LS-D LE-E" d="M108.516,406L108.516,410.167C108.516,414.333,108.516,422.667,108.516,430.117C108.516,437.567,108.516,444.133,108.516,447.417L108.516,450.7" id="L-D-E-0" marker-end="url(#bytemd-mermaid-1789016765305-3_flowchart-pointEnd)" style="fill:none;"></path><path class="edge-thickness-normal edge-pattern-solid flowchart-link LS-E LE-F" d="M108.516,527L108.516,531.167C108.516,535.333,108.516,543.667,108.516,551.117C108.516,558.567,108.516,565.133,108.516,568.417L108.516,571.7" id="L-E-F-0" marker-end="url(#bytemd-mermaid-1789016765305-3_flowchart-pointEnd)" style="fill:none;"></path><path class="edge-thickness-normal edge-pattern-solid flowchart-link LS-F LE-G" d="M108.516,648L108.516,652.167C108.516,656.333,108.516,664.667,108.516,672.117C108.516,679.567,108.516,686.133,108.516,689.417L108.516,692.7" id="L-F-G-0" marker-end="url(#bytemd-mermaid-1789016765305-3_flowchart-pointEnd)" style="fill:none;"></path></g><g class="edgeLabels"><g class="edgeLabel"><g class="label" transform="translate(0, 0)"><foreignobject height="0" width="0"><div style="display: inline-block; white-space: nowrap;" xmlns="http://www.w3.org/1999/xhtml"><span class="edgeLabel"></span></div></foreignobject></g></g><g class="edgeLabel"><g class="label" transform="translate(0, 0)"><foreignobject height="0" width="0"><div style="display: inline-block; white-space: nowrap;" xmlns="http://www.w3.org/1999/xhtml"><span class="edgeLabel"></span></div></foreignobject></g></g><g class="edgeLabel"><g class="label" transform="translate(0, 0)"><foreignobject height="0" width="0"><div style="display: inline-block; white-space: nowrap;" xmlns="http://www.w3.org/1999/xhtml"><span class="edgeLabel"></span></div></foreignobject></g></g><g class="edgeLabel"><g class="label" transform="translate(0, 0)"><foreignobject height="0" width="0"><div style="display: inline-block; white-space: nowrap;" xmlns="http://www.w3.org/1999/xhtml"><span class="edgeLabel"></span></div></foreignobject></g></g><g class="edgeLabel"><g class="label" transform="translate(0, 0)"><foreignobject height="0" width="0"><div style="display: inline-block; white-space: nowrap;" xmlns="http://www.w3.org/1999/xhtml"><span class="edgeLabel"></span></div></foreignobject></g></g><g class="edgeLabel"><g class="label" transform="translate(0, 0)"><foreignobject height="0" width="0"><div style="display: inline-block; white-space: nowrap;" xmlns="http://www.w3.org/1999/xhtml"><span class="edgeLabel"></span></div></foreignobject></g></g></g><g class="nodes"><g class="node default default flowchart-label" data-id="A" data-node="true" id="flowchart-A-187" transform="translate(108.515625, 21.5)"><rect class="basic label-container" height="43" rx="0" ry="0" style="fill:#ffebee;" width="175" x="-87.5" y="-21.5"></rect><g class="label" style="" transform="translate(-80, -14)"><rect></rect><foreignobject height="28" width="160"><div style="display: inline-block; white-space: nowrap;" xmlns="http://www.w3.org/1999/xhtml"><span class="nodeLabel">原始搜索结果（大量）</span></div></foreignobject></g></g><g class="node default default flowchart-label" data-id="B" data-node="true" id="flowchart-B-188" transform="translate(108.515625, 128.5)"><rect class="basic label-container" height="71" rx="0" ry="0" style="" width="217.03125" x="-108.515625" y="-35.5"></rect><g class="label" style="" transform="translate(-101.015625, -28)"><rect></rect><foreignobject height="56" width="202.03125"><div style="display: inline-block; white-space: nowrap;" xmlns="http://www.w3.org/1999/xhtml"><span class="nodeLabel">第一层：信息源级过滤<br/>Twitter 互动阈值 + 排除回复</span></div></foreignobject></g></g><g class="node default default flowchart-label" data-id="C" data-node="true" id="flowchart-C-190" transform="translate(108.515625, 249.5)"><rect class="basic label-container" height="71" rx="0" ry="0" style="" width="143" x="-71.5" y="-35.5"></rect><g class="label" style="" transform="translate(-64, -28)"><rect></rect><foreignobject height="56" width="128"><div style="display: inline-block; white-space: nowrap;" xmlns="http://www.w3.org/1999/xhtml"><span class="nodeLabel">第二层：时间过滤<br/>仅保留 7 天内</span></div></foreignobject></g></g><g class="node default default flowchart-label" data-id="D" data-node="true" id="flowchart-D-192" transform="translate(108.515625, 370.5)"><rect class="basic label-container" height="71" rx="0" ry="0" style="" width="145.71875" x="-72.859375" y="-35.5"></rect><g class="label" style="" transform="translate(-65.359375, -28)"><rect></rect><foreignobject height="56" width="130.71875"><div style="display: inline-block; white-space: nowrap;" xmlns="http://www.w3.org/1999/xhtml"><span class="nodeLabel">第三层：AI 预过滤<br/>基础文本匹配</span></div></foreignobject></g></g><g class="node default default flowchart-label" data-id="E" data-node="true" id="flowchart-E-194" transform="translate(108.515625, 491.5)"><rect class="basic label-container" height="71" rx="0" ry="0" style="" width="177.03125" x="-88.515625" y="-35.5"></rect><g class="label" style="" transform="translate(-81.015625, -28)"><rect></rect><foreignobject height="56" width="162.03125"><div style="display: inline-block; white-space: nowrap;" xmlns="http://www.w3.org/1999/xhtml"><span class="nodeLabel">第四层：AI 深度分析<br/>真假判断 + 相关性评分</span></div></foreignobject></g></g><g class="node default default flowchart-label" data-id="F" data-node="true" id="flowchart-F-196" transform="translate(108.515625, 612.5)"><rect class="basic label-container" height="71" rx="0" ry="0" style="" width="175" x="-87.5" y="-35.5"></rect><g class="label" style="" transform="translate(-80, -28)"><rect></rect><foreignobject height="56" width="160"><div style="display: inline-block; white-space: nowrap;" xmlns="http://www.w3.org/1999/xhtml"><span class="nodeLabel">第五层：前端用户过滤<br/>筛选 + 排序</span></div></foreignobject></g></g><g class="node default default flowchart-label" data-id="G" data-node="true" id="flowchart-G-198" transform="translate(108.515625, 719.5)"><rect class="basic label-container" height="43" rx="0" ry="0" style="fill:#e8f5e9;" width="191" x="-95.5" y="-21.5"></rect><g class="label" style="" transform="translate(-88, -14)"><rect></rect><foreignobject height="28" width="176"><div style="display: inline-block; white-space: nowrap;" xmlns="http://www.w3.org/1999/xhtml"><span class="nodeLabel">最终展示给用户（精准）</span></div></foreignobject></g></g></g></g></g></svg>