<svg aria-roledescription="flowchart-v2" role="graphics-document document" viewBox="-8 -8 494.25 1074" style="max-width: 494.25px;" xmlns="http://www.w3.org/2000/svg" width="494.25" id="svg" height="1074"><style>#svg{font-family:"trebuchet ms",verdana,arial,sans-serif;font-size:16px;fill:#333;}#svg .error-icon{fill:#552222;}#svg .error-text{fill:#552222;stroke:#552222;}#svg .edge-thickness-normal{stroke-width:2px;}#svg .edge-thickness-thick{stroke-width:3.5px;}#svg .edge-pattern-solid{stroke-dasharray:0;}#svg .edge-pattern-dashed{stroke-dasharray:3;}#svg .edge-pattern-dotted{stroke-dasharray:2;}#svg .marker{fill:#333333;stroke:#333333;}#svg .marker.cross{stroke:#333333;}#svg svg{font-family:"trebuchet ms",verdana,arial,sans-serif;font-size:16px;}#svg .label{font-family:"trebuchet ms",verdana,arial,sans-serif;color:#333;}#svg .cluster-label text{fill:#333;}#svg .cluster-label span,#svg p{color:#333;}#svg .label text,#svg span,#svg p{fill:#333;color:#333;}#svg .node rect,#svg .node circle,#svg .node ellipse,#svg .node polygon,#svg .node path{fill:#ECECFF;stroke:#9370DB;stroke-width:1px;}#svg .flowchart-label text{text-anchor:middle;}#svg .node .katex path{fill:#000;stroke:#000;stroke-width:1px;}#svg .node .label{text-align:center;}#svg .node.clickable{cursor:pointer;}#svg .arrowheadPath{fill:#333333;}#svg .edgePath .path{stroke:#333333;stroke-width:2.0px;}#svg .flowchart-link{stroke:#333333;fill:none;}#svg .edgeLabel{background-color:#e8e8e8;text-align:center;}#svg .edgeLabel rect{opacity:0.5;background-color:#e8e8e8;fill:#e8e8e8;}#svg .labelBkg{background-color:rgba(232, 232, 232, 0.5);}#svg .cluster rect{fill:#ffffde;stroke:#aaaa33;stroke-width:1px;}#svg .cluster text{fill:#333;}#svg .cluster span,#svg p{color:#333;}#svg div.mermaidTooltip{position:absolute;text-align:center;max-width:200px;padding:2px;font-family:"trebuchet ms",verdana,arial,sans-serif;font-size:12px;background:hsl(80, 100%, 96.2745098039%);border:1px solid #aaaa33;border-radius:2px;pointer-events:none;z-index:100;}#svg .flowchartTitleText{text-anchor:middle;font-size:18px;fill:#333;}#svg .today{display:none;}#svg .label foreignObject{overflow:visible;}#svg :root{--mermaid-font-family:"trebuchet ms",verdana,arial,sans-serif;}#svg .userAction&gt;*{fill:#e3f2fd!important;stroke:#1976d2!important;stroke-width:2px!important;}#svg .userAction span{fill:#e3f2fd!important;stroke:#1976d2!important;stroke-width:2px!important;}#svg .aiProcess&gt;*{fill:#f3e5f5!important;stroke:#7b1fa2!important;stroke-width:2px!important;}#svg .aiProcess span{fill:#f3e5f5!important;stroke:#7b1fa2!important;stroke-width:2px!important;}#svg .systemAction&gt;*{fill:#e8f5e8!important;stroke:#388e3c!important;stroke-width:2px!important;}#svg .systemAction span{fill:#e8f5e8!important;stroke:#388e3c!important;stroke-width:2px!important;}#svg .decision&gt;*{fill:#fff3e0!important;stroke:#f57c00!important;stroke-width:2px!important;}#svg .decision span{fill:#fff3e0!important;stroke:#f57c00!important;stroke-width:2px!important;}</style><g><marker orient="auto" markerHeight="12" markerWidth="12" markerUnits="userSpaceOnUse" refY="5" refX="6" viewBox="0 0 10 10" class="marker flowchart" id="svg_flowchart-pointEnd"><path style="stroke-width: 1; stroke-dasharray: 1, 0;" class="arrowMarkerPath" d="M 0 0 L 10 5 L 0 10 z"></path></marker><marker orient="auto" markerHeight="12" markerWidth="12" markerUnits="userSpaceOnUse" refY="5" refX="4.5" viewBox="0 0 10 10" class="marker flowchart" id="svg_flowchart-pointStart"><path style="stroke-width: 1; stroke-dasharray: 1, 0;" class="arrowMarkerPath" d="M 0 5 L 10 10 L 10 0 z"></path></marker><marker orient="auto" markerHeight="11" markerWidth="11" markerUnits="userSpaceOnUse" refY="5" refX="11" viewBox="0 0 10 10" class="marker flowchart" id="svg_flowchart-circleEnd"><circle style="stroke-width: 1; stroke-dasharray: 1, 0;" class="arrowMarkerPath" r="5" cy="5" cx="5"></circle></marker><marker orient="auto" markerHeight="11" markerWidth="11" markerUnits="userSpaceOnUse" refY="5" refX="-1" viewBox="0 0 10 10" class="marker flowchart" id="svg_flowchart-circleStart"><circle style="stroke-width: 1; stroke-dasharray: 1, 0;" class="arrowMarkerPath" r="5" cy="5" cx="5"></circle></marker><marker orient="auto" markerHeight="11" markerWidth="11" markerUnits="userSpaceOnUse" refY="5.2" refX="12" viewBox="0 0 11 11" class="marker cross flowchart" id="svg_flowchart-crossEnd"><path style="stroke-width: 2; stroke-dasharray: 1, 0;" class="arrowMarkerPath" d="M 1,1 l 9,9 M 10,1 l -9,9"></path></marker><marker orient="auto" markerHeight="11" markerWidth="11" markerUnits="userSpaceOnUse" refY="5.2" refX="-1" viewBox="0 0 11 11" class="marker cross flowchart" id="svg_flowchart-crossStart"><path style="stroke-width: 2; stroke-dasharray: 1, 0;" class="arrowMarkerPath" d="M 1,1 l 9,9 M 10,1 l -9,9"></path></marker><g class="root"><g class="clusters"></g><g class="edgePaths"><path marker-end="url(#svg_flowchart-pointEnd)" style="fill:none;" class="edge-thickness-normal edge-pattern-solid flowchart-link LS-A LE-B" id="L-A-B-0" d="M210,36L210,40.167C210,44.333,210,52.667,210,60.117C210,67.567,210,74.133,210,77.417L210,80.7"></path><path marker-end="url(#svg_flowchart-pointEnd)" style="fill:none;" class="edge-thickness-normal edge-pattern-solid flowchart-link LS-B LE-C" id="L-B-C-0" d="M210,122L210,126.167C210,130.333,210,138.667,210,146.117C210,153.567,210,160.133,210,163.417L210,166.7"></path><path marker-end="url(#svg_flowchart-pointEnd)" style="fill:none;" class="edge-thickness-normal edge-pattern-solid flowchart-link LS-C LE-D" id="L-C-D-0" d="M210,208L210,212.167C210,216.333,210,224.667,210,232.117C210,239.567,210,246.133,210,249.417L210,252.7"></path><path marker-end="url(#svg_flowchart-pointEnd)" style="fill:none;" class="edge-thickness-normal edge-pattern-solid flowchart-link LS-D LE-E" id="L-D-E-0" d="M210,315L210,319.167C210,323.333,210,331.667,210,339.117C210,346.567,210,353.133,210,356.417L210,359.7"></path><path marker-end="url(#svg_flowchart-pointEnd)" style="fill:none;" class="edge-thickness-normal edge-pattern-solid flowchart-link LS-E LE-F" id="L-E-F-0" d="M158.721,401L146.851,405.167C134.981,409.333,111.24,417.667,99.436,425.2C87.632,432.734,87.764,439.467,87.83,442.834L87.896,446.201"></path><path marker-end="url(#svg_flowchart-pointEnd)" style="fill:none;" class="edge-thickness-normal edge-pattern-solid flowchart-link LS-F LE-G" id="L-F-G-0" d="M88,607.5L87.917,613.333C87.833,619.167,87.667,630.833,87.583,641.7C87.5,652.567,87.5,662.633,87.5,667.667L87.5,672.7"></path><path marker-end="url(#svg_flowchart-pointEnd)" style="fill:none;" class="edge-thickness-normal edge-pattern-solid flowchart-link LS-G LE-H" id="L-G-H-0" d="M87.5,714L87.5,718.167C87.5,722.333,87.5,730.667,92.712,738.492C97.924,746.318,108.348,753.636,113.561,757.296L118.773,760.955"></path><path marker-end="url(#svg_flowchart-pointEnd)" style="fill:none;" class="edge-thickness-normal edge-pattern-solid flowchart-link LS-H LE-E" id="L-H-E-0" d="M174.39,764L180.325,759.833C186.26,755.667,198.13,747.333,204.065,736C210,724.667,210,710.333,210,694.25C210,678.167,210,660.333,210,632.5C210,604.667,210,566.833,210,530.75C210,494.667,210,460.333,210,439.883C210,419.433,210,412.867,210,409.583L210,406.3"></path><path marker-end="url(#svg_flowchart-pointEnd)" style="fill:none;" class="edge-thickness-normal edge-pattern-solid flowchart-link LS-F LE-I" id="L-F-I-0" d="M143.285,552.215L180.03,567.262C216.774,582.31,290.262,612.405,327.006,632.486C363.75,652.567,363.75,662.633,363.75,667.667L363.75,672.7"></path><path marker-end="url(#svg_flowchart-pointEnd)" style="fill:none;" class="edge-thickness-normal edge-pattern-solid flowchart-link LS-I LE-J" id="L-I-J-0" d="M363.75,714L363.75,718.167C363.75,722.333,363.75,730.667,363.75,738.117C363.75,745.567,363.75,752.133,363.75,755.417L363.75,758.7"></path><path marker-end="url(#svg_flowchart-pointEnd)" style="fill:none;" class="edge-thickness-normal edge-pattern-solid flowchart-link LS-J LE-K" id="L-J-K-0" d="M363.75,800L363.75,804.167C363.75,808.333,363.75,816.667,363.75,824.117C363.75,831.567,363.75,838.133,363.75,841.417L363.75,844.7"></path><path marker-end="url(#svg_flowchart-pointEnd)" style="fill:none;" class="edge-thickness-normal edge-pattern-solid flowchart-link LS-K LE-L" id="L-K-L-0" d="M363.75,886L363.75,890.167C363.75,894.333,363.75,902.667,363.75,910.117C363.75,917.567,363.75,924.133,363.75,927.417L363.75,930.7"></path><path marker-end="url(#svg_flowchart-pointEnd)" style="fill:none;" class="edge-thickness-normal edge-pattern-solid flowchart-link LS-L LE-M" id="L-L-M-0" d="M363.75,972L363.75,976.167C363.75,980.333,363.75,988.667,368.591,996.47C373.432,1004.272,383.115,1011.545,387.956,1015.181L392.797,1018.817"></path><path marker-end="url(#svg_flowchart-pointEnd)" style="fill:none;" class="edge-thickness-normal edge-pattern-solid flowchart-link LS-M LE-E" id="L-M-E-0" d="M444.965,1022L450.513,1017.833C456.06,1013.667,467.155,1005.333,472.703,994C478.25,982.667,478.25,968.333,478.25,954C478.25,939.667,478.25,925.333,478.25,911C478.25,896.667,478.25,882.333,478.25,868C478.25,853.667,478.25,839.333,478.25,825C478.25,810.667,478.25,796.333,478.25,782C478.25,767.667,478.25,753.333,478.25,739C478.25,724.667,478.25,710.333,478.25,694.25C478.25,678.167,478.25,660.333,478.25,632.5C478.25,604.667,478.25,566.833,478.25,530.75C478.25,494.667,478.25,460.333,444.997,437.836C411.744,415.339,345.239,404.679,311.986,399.348L278.733,394.018"></path></g><g class="edgeLabels"><g class="edgeLabel"><g transform="translate(0, 0)" class="label"><foreignObject height="0" width="0"><div style="display: inline-block; white-space: nowrap;" xmlns="http://www.w3.org/1999/xhtml"><span class="edgeLabel"></span></div></foreignObject></g></g><g class="edgeLabel"><g transform="translate(0, 0)" class="label"><foreignObject height="0" width="0"><div style="display: inline-block; white-space: nowrap;" xmlns="http://www.w3.org/1999/xhtml"><span class="edgeLabel"></span></div></foreignObject></g></g><g class="edgeLabel"><g transform="translate(0, 0)" class="label"><foreignObject height="0" width="0"><div style="display: inline-block; white-space: nowrap;" xmlns="http://www.w3.org/1999/xhtml"><span class="edgeLabel"></span></div></foreignObject></g></g><g class="edgeLabel"><g transform="translate(0, 0)" class="label"><foreignObject height="0" width="0"><div style="display: inline-block; white-space: nowrap;" xmlns="http://www.w3.org/1999/xhtml"><span class="edgeLabel"></span></div></foreignObject></g></g><g class="edgeLabel"><g transform="translate(0, 0)" class="label"><foreignObject height="0" width="0"><div style="display: inline-block; white-space: nowrap;" xmlns="http://www.w3.org/1999/xhtml"><span class="edgeLabel"></span></div></foreignObject></g></g><g transform="translate(87.5, 642.5)" class="edgeLabel"><g transform="translate(-32, -10.5)" class="label"><foreignObject height="21" width="64"><div style="display: inline-block; white-space: nowrap;" xmlns="http://www.w3.org/1999/xhtml"><span class="edgeLabel">需要修改</span></div></foreignObject></g></g><g class="edgeLabel"><g transform="translate(0, 0)" class="label"><foreignObject height="0" width="0"><div style="display: inline-block; white-space: nowrap;" xmlns="http://www.w3.org/1999/xhtml"><span class="edgeLabel"></span></div></foreignObject></g></g><g class="edgeLabel"><g transform="translate(0, 0)" class="label"><foreignObject height="0" width="0"><div style="display: inline-block; white-space: nowrap;" xmlns="http://www.w3.org/1999/xhtml"><span class="edgeLabel"></span></div></foreignObject></g></g><g transform="translate(363.75, 642.5)" class="edgeLabel"><g transform="translate(-16, -10.5)" class="label"><foreignObject height="21" width="32"><div style="display: inline-block; white-space: nowrap;" xmlns="http://www.w3.org/1999/xhtml"><span class="edgeLabel">满意</span></div></foreignObject></g></g><g class="edgeLabel"><g transform="translate(0, 0)" class="label"><foreignObject height="0" width="0"><div style="display: inline-block; white-space: nowrap;" xmlns="http://www.w3.org/1999/xhtml"><span class="edgeLabel"></span></div></foreignObject></g></g><g class="edgeLabel"><g transform="translate(0, 0)" class="label"><foreignObject height="0" width="0"><div style="display: inline-block; white-space: nowrap;" xmlns="http://www.w3.org/1999/xhtml"><span class="edgeLabel"></span></div></foreignObject></g></g><g class="edgeLabel"><g transform="translate(0, 0)" class="label"><foreignObject height="0" width="0"><div style="display: inline-block; white-space: nowrap;" xmlns="http://www.w3.org/1999/xhtml"><span class="edgeLabel"></span></div></foreignObject></g></g><g class="edgeLabel"><g transform="translate(0, 0)" class="label"><foreignObject height="0" width="0"><div style="display: inline-block; white-space: nowrap;" xmlns="http://www.w3.org/1999/xhtml"><span class="edgeLabel"></span></div></foreignObject></g></g><g class="edgeLabel"><g transform="translate(0, 0)" class="label"><foreignObject height="0" width="0"><div style="display: inline-block; white-space: nowrap;" xmlns="http://www.w3.org/1999/xhtml"><span class="edgeLabel"></span></div></foreignObject></g></g></g><g class="nodes"><g transform="translate(210, 18)" data-id="A" data-node="true" id="flowchart-A-0" class="node default userAction flowchart-label"><rect height="36" width="111" y="-18" x="-55.5" ry="0" rx="0" style="" class="basic label-container"></rect><g transform="translate(-48, -10.5)" style="" class="label"><rect></rect><foreignObject height="21" width="96"><div style="display: inline-block; white-space: nowrap;" xmlns="http://www.w3.org/1999/xhtml"><span class="nodeLabel">用户注册登录</span></div></foreignObject></g></g><g transform="translate(210, 104)" data-id="B" data-node="true" id="flowchart-B-1" class="node default userAction flowchart-label"><rect height="36" width="159" y="-18" x="-79.5" ry="0" rx="0" style="" class="basic label-container"></rect><g transform="translate(-72, -10.5)" style="" class="label"><rect></rect><foreignObject height="21" width="144"><div style="display: inline-block; white-space: nowrap;" xmlns="http://www.w3.org/1999/xhtml"><span class="nodeLabel">输入提示词创建应用</span></div></foreignObject></g></g><g transform="translate(210, 190)" data-id="C" data-node="true" id="flowchart-C-3" class="node default aiProcess flowchart-label"><rect height="36" width="191" y="-18" x="-95.5" ry="0" rx="0" style="" class="basic label-container"></rect><g transform="translate(-88, -10.5)" style="" class="label"><rect></rect><foreignObject height="21" width="176"><div style="display: inline-block; white-space: nowrap;" xmlns="http://www.w3.org/1999/xhtml"><span class="nodeLabel">AI智能选择代码生成类型</span></div></foreignObject></g></g><g transform="translate(210, 286.5)" data-id="D" data-node="true" id="flowchart-D-5" class="node default aiProcess flowchart-label"><rect height="57" width="159" y="-28.5" x="-79.5" ry="0" rx="0" style="" class="basic label-container"></rect><g transform="translate(-72, -21)" style="" class="label"><rect></rect><foreignObject height="42" width="144"><div style="display: inline-block; white-space: nowrap;" xmlns="http://www.w3.org/1999/xhtml"><span class="nodeLabel">AI调用工具生成代码<br/>流式输出过程</span></div></foreignObject></g></g><g transform="translate(210, 383)" data-id="E" data-node="true" id="flowchart-E-7" class="node default userAction flowchart-label"><rect height="36" width="127" y="-18" x="-63.5" ry="0" rx="0" style="" class="basic label-container"></rect><g transform="translate(-56, -10.5)" style="" class="label"><rect></rect><foreignObject height="21" width="112"><div style="display: inline-block; white-space: nowrap;" xmlns="http://www.w3.org/1999/xhtml"><span class="nodeLabel">预览生成的网站</span></div></foreignObject></g></g><g transform="translate(87.5, 529)" data-id="F" data-node="true" id="flowchart-F-9" class="node default decision flowchart-label"><polygon style="" transform="translate(-78,78)" class="label-container" points="78,0 156,-78 78,-156 0,-78"></polygon><g transform="translate(-52.5, -10.5)" style="" class="label"><rect></rect><foreignObject height="21" width="105"><div style="display: inline-block; white-space: nowrap;" xmlns="http://www.w3.org/1999/xhtml"><span class="nodeLabel">是否需要修改?</span></div></foreignObject></g></g><g transform="translate(87.5, 696)" data-id="G" data-node="true" id="flowchart-G-11" class="node default userAction flowchart-label"><rect height="36" width="175" y="-18" x="-87.5" ry="0" rx="0" style="" class="basic label-container"></rect><g transform="translate(-80, -10.5)" style="" class="label"><rect></rect><foreignObject height="21" width="160"><div style="display: inline-block; white-space: nowrap;" xmlns="http://www.w3.org/1999/xhtml"><span class="nodeLabel">可视化编辑或继续对话</span></div></foreignObject></g></g><g transform="translate(148.75, 782)" data-id="H" data-node="true" id="flowchart-H-13" class="node default aiProcess flowchart-label"><rect height="36" width="159" y="-18" x="-79.5" ry="0" rx="0" style="" class="basic label-container"></rect><g transform="translate(-72, -10.5)" style="" class="label"><rect></rect><foreignObject height="21" width="144"><div style="display: inline-block; white-space: nowrap;" xmlns="http://www.w3.org/1999/xhtml"><span class="nodeLabel">AI调用工具修改代码</span></div></foreignObject></g></g><g transform="translate(363.75, 696)" data-id="I" data-node="true" id="flowchart-I-17" class="node default systemAction flowchart-label"><rect height="36" width="143" y="-18" x="-71.5" ry="0" rx="0" style="" class="basic label-container"></rect><g transform="translate(-64, -10.5)" style="" class="label"><rect></rect><foreignObject height="21" width="128"><div style="display: inline-block; white-space: nowrap;" xmlns="http://www.w3.org/1999/xhtml"><span class="nodeLabel">部署应用获得链接</span></div></foreignObject></g></g><g transform="translate(363.75, 782)" data-id="J" data-node="true" id="flowchart-J-19" class="node default systemAction flowchart-label"><rect height="36" width="143" y="-18" x="-71.5" ry="0" rx="0" style="" class="basic label-container"></rect><g transform="translate(-64, -10.5)" style="" class="label"><rect></rect><foreignObject height="21" width="128"><div style="display: inline-block; white-space: nowrap;" xmlns="http://www.w3.org/1999/xhtml"><span class="nodeLabel">自动截图生成封面</span></div></foreignObject></g></g><g transform="translate(363.75, 868)" data-id="K" data-node="true" id="flowchart-K-21" class="node default systemAction flowchart-label"><rect height="36" width="111" y="-18" x="-55.5" ry="0" rx="0" style="" class="basic label-container"></rect><g transform="translate(-48, -10.5)" style="" class="label"><rect></rect><foreignObject height="21" width="96"><div style="display: inline-block; white-space: nowrap;" xmlns="http://www.w3.org/1999/xhtml"><span class="nodeLabel">下载项目代码</span></div></foreignObject></g></g><g transform="translate(363.75, 954)" data-id="L" data-node="true" id="flowchart-L-23" class="node default userAction flowchart-label"><rect height="36" width="159" y="-18" x="-79.5" ry="0" rx="0" style="" class="basic label-container"></rect><g transform="translate(-72, -10.5)" style="" class="label"><rect></rect><foreignObject height="21" width="144"><div style="display: inline-block; white-space: nowrap;" xmlns="http://www.w3.org/1999/xhtml"><span class="nodeLabel">用户可重新进入应用</span></div></foreignObject></g></g><g transform="translate(421, 1040)" data-id="M" data-node="true" id="flowchart-M-25" class="node default aiProcess flowchart-label"><rect height="36" width="111" y="-18" x="-55.5" ry="0" rx="0" style="" class="basic label-container"></rect><g transform="translate(-48, -10.5)" style="" class="label"><rect></rect><foreignObject height="21" width="96"><div style="display: inline-block; white-space: nowrap;" xmlns="http://www.w3.org/1999/xhtml"><span class="nodeLabel">加载对话历史</span></div></foreignObject></g></g></g></g></g></svg>