<svg aria-roledescription="flowchart-v2" id="bytemd-mermaid-1789038640639-0" role="graphics-document document" style="max-width: 529.0208740234375px;" viewbox="-8 -8 529.0208740234375 366" width="100%" xmlns="http://www.w3.org/2000/svg" xmlns:xlink="http://www.w3.org/1999/xlink"><g><marker class="marker flowchart" id="bytemd-mermaid-1789038640639-0_flowchart-pointEnd" markerheight="12" markerunits="userSpaceOnUse" markerwidth="12" orient="auto" refx="6" refy="5" viewbox="0 0 10 10"><path class="arrowMarkerPath" d="M 0 0 L 10 5 L 0 10 z" style="stroke-width: 1; stroke-dasharray: 1, 0;"></path></marker><marker class="marker flowchart" id="bytemd-mermaid-1789038640639-0_flowchart-pointStart" markerheight="12" markerunits="userSpaceOnUse" markerwidth="12" orient="auto" refx="4.5" refy="5" viewbox="0 0 10 10"><path class="arrowMarkerPath" d="M 0 5 L 10 10 L 10 0 z" style="stroke-width: 1; stroke-dasharray: 1, 0;"></path></marker><marker class="marker flowchart" id="bytemd-mermaid-1789038640639-0_flowchart-circleEnd" markerheight="11" markerunits="userSpaceOnUse" markerwidth="11" orient="auto" refx="11" refy="5" viewbox="0 0 10 10"><circle class="arrowMarkerPath" cx="5" cy="5" r="5" style="stroke-width: 1; stroke-dasharray: 1, 0;"></circle></marker><marker class="marker flowchart" id="bytemd-mermaid-1789038640639-0_flowchart-circleStart" markerheight="11" markerunits="userSpaceOnUse" markerwidth="11" orient="auto" refx="-1" refy="5" viewbox="0 0 10 10"><circle class="arrowMarkerPath" cx="5" cy="5" r="5" style="stroke-width: 1; stroke-dasharray: 1, 0;"></circle></marker><marker class="marker cross flowchart" id="bytemd-mermaid-1789038640639-0_flowchart-crossEnd" markerheight="11" markerunits="userSpaceOnUse" markerwidth="11" orient="auto" refx="12" refy="5.2" viewbox="0 0 11 11"><path class="arrowMarkerPath" d="M 1,1 l 9,9 M 10,1 l -9,9" style="stroke-width: 2; stroke-dasharray: 1, 0;"></path></marker><marker class="marker cross flowchart" id="bytemd-mermaid-1789038640639-0_flowchart-crossStart" markerheight="11" markerunits="userSpaceOnUse" markerwidth="11" orient="auto" refx="-1" refy="5.2" viewbox="0 0 11 11"><path class="arrowMarkerPath" d="M 1,1 l 9,9 M 10,1 l -9,9" style="stroke-width: 2; stroke-dasharray: 1, 0;"></path></marker><g class="root"><g class="clusters"></g><g class="edgePaths"><path class="edge-thickness-normal edge-pattern-solid flowchart-link LS-Client LE-Factory" d="M258.844,43L258.844,47.167C258.844,51.333,258.844,59.667,258.844,67.117C258.844,74.567,258.844,81.133,258.844,84.417L258.844,87.7" id="L-Client-Factory-0" marker-end="url(#bytemd-mermaid-1789038640639-0_flowchart-pointEnd)" style="fill:none;"></path><path class="edge-thickness-normal edge-pattern-solid flowchart-link LS-Factory LE-Qwen" d="M192.806,136L172.841,142.5C152.876,149,112.946,162,92.981,174.117C73.016,186.233,73.016,197.467,73.016,203.083L73.016,208.7" id="L-Factory-Qwen-0" marker-end="url(#bytemd-mermaid-1789038640639-0_flowchart-pointEnd)" style="fill:none;"></path><path class="edge-thickness-normal edge-pattern-solid flowchart-link LS-Factory LE-Zhipu" d="M258.844,136L258.844,142.5C258.844,149,258.844,162,258.844,174.117C258.844,186.233,258.844,197.467,258.844,203.083L258.844,208.7" id="L-Factory-Zhipu-0" marker-end="url(#bytemd-mermaid-1789038640639-0_flowchart-pointEnd)" style="fill:none;"></path><path class="edge-thickness-normal edge-pattern-solid flowchart-link LS-Factory LE-DeepSeek" d="M324.053,136L343.767,142.5C363.481,149,402.91,162,422.624,174.117C442.339,186.233,442.339,197.467,442.339,203.083L442.339,208.7" id="L-Factory-DeepSeek-0" marker-end="url(#bytemd-mermaid-1789038640639-0_flowchart-pointEnd)" style="fill:none;"></path><path class="edge-thickness-normal edge-pattern-solid flowchart-link LS-Qwen LE-QwenAPI" d="M73.016,257L73.016,261.167C73.016,265.333,73.016,273.667,73.016,281.117C73.016,288.567,73.016,295.133,73.016,298.417L73.016,301.7" id="L-Qwen-QwenAPI-0" marker-end="url(#bytemd-mermaid-1789038640639-0_flowchart-pointEnd)" style="fill:none;"></path><path class="edge-thickness-normal edge-pattern-solid flowchart-link LS-Zhipu LE-ZhipuAPI" d="M258.844,257L258.844,261.167C258.844,265.333,258.844,273.667,258.844,281.117C258.844,288.567,258.844,295.133,258.844,298.417L258.844,301.7" id="L-Zhipu-ZhipuAPI-0" marker-end="url(#bytemd-mermaid-1789038640639-0_flowchart-pointEnd)" style="fill:none;"></path><path class="edge-thickness-normal edge-pattern-solid flowchart-link LS-DeepSeek LE-DeepSeekAPI" d="M442.339,257L442.339,261.167C442.339,265.333,442.339,273.667,442.339,281.117C442.339,288.567,442.339,295.133,442.339,298.417L442.339,301.7" id="L-DeepSeek-DeepSeekAPI-0" marker-end="url(#bytemd-mermaid-1789038640639-0_flowchart-pointEnd)" style="fill:none;"></path></g><g class="edgeLabels"><g class="edgeLabel"><g class="label" transform="translate(0, 0)"><foreignobject height="0" width="0"><div style="display: inline-block; white-space: nowrap;" xmlns="http://www.w3.org/1999/xhtml"><span class="edgeLabel"></span></div></foreignobject></g></g><g class="edgeLabel" transform="translate(73.015625, 175)"><g class="label" transform="translate(-19.14583396911621, -14)"><foreignobject height="28" width="38.29166793823242"><div style="display: inline-block; white-space: nowrap;" xmlns="http://www.w3.org/1999/xhtml"><span class="edgeLabel">qwen</span></div></foreignobject></g></g><g class="edgeLabel" transform="translate(258.84375, 175)"><g class="label" transform="translate(-19.28125, -14)"><foreignobject height="28" width="38.5625"><div style="display: inline-block; white-space: nowrap;" xmlns="http://www.w3.org/1999/xhtml"><span class="edgeLabel">zhipu</span></div></foreignobject></g></g><g class="edgeLabel" transform="translate(442.33853912353516, 175)"><g class="label" transform="translate(-33.640625, -14)"><foreignobject height="28" width="67.28125"><div style="display: inline-block; white-space: nowrap;" xmlns="http://www.w3.org/1999/xhtml"><span class="edgeLabel">deepseek</span></div></foreignobject></g></g><g class="edgeLabel"><g class="label" transform="translate(0, 0)"><foreignobject height="0" width="0"><div style="display: inline-block; white-space: nowrap;" xmlns="http://www.w3.org/1999/xhtml"><span class="edgeLabel"></span></div></foreignobject></g></g><g class="edgeLabel"><g class="label" transform="translate(0, 0)"><foreignobject height="0" width="0"><div style="display: inline-block; white-space: nowrap;" xmlns="http://www.w3.org/1999/xhtml"><span class="edgeLabel"></span></div></foreignobject></g></g><g class="edgeLabel"><g class="label" transform="translate(0, 0)"><foreignobject height="0" width="0"><div style="display: inline-block; white-space: nowrap;" xmlns="http://www.w3.org/1999/xhtml"><span class="edgeLabel"></span></div></foreignobject></g></g></g><g class="nodes"><g class="node default default flowchart-label" data-id="Client" data-node="true" id="flowchart-Client-888" transform="translate(258.84375, 21.5)"><rect class="basic label-container" height="43" rx="0" ry="0" style="" width="95" x="-47.5" y="-21.5"></rect><g class="label" style="" transform="translate(-40, -14)"><rect></rect><foreignobject height="28" width="80"><div style="display: inline-block; white-space: nowrap;" xmlns="http://www.w3.org/1999/xhtml"><span class="nodeLabel">客户端调用</span></div></foreignobject></g></g><g class="node default default flowchart-label" data-id="Factory" data-node="true" id="flowchart-Factory-889" transform="translate(258.84375, 114.5)"><rect class="basic label-container" height="43" rx="0" ry="0" style="" width="168.03125" x="-84.015625" y="-21.5"></rect><g class="label" style="" transform="translate(-76.515625, -14)"><rect></rect><foreignobject height="28" width="153.03125"><div style="display: inline-block; white-space: nowrap;" xmlns="http://www.w3.org/1999/xhtml"><span class="nodeLabel">ModelAdapterFactory</span></div></foreignobject></g></g><g class="node default default flowchart-label" data-id="Qwen" data-node="true" id="flowchart-Qwen-891" transform="translate(73.015625, 235.5)"><rect class="basic label-container" height="43" rx="0" ry="0" style="" width="146.03125" x="-73.015625" y="-21.5"></rect><g class="label" style="" transform="translate(-65.515625, -14)"><rect></rect><foreignobject height="28" width="131.03125"><div style="display: inline-block; white-space: nowrap;" xmlns="http://www.w3.org/1999/xhtml"><span class="nodeLabel">DashscopeAdapter</span></div></foreignobject></g></g><g class="node default default flowchart-label" data-id="Zhipu" data-node="true" id="flowchart-Zhipu-893" transform="translate(258.84375, 235.5)"><rect class="basic label-container" height="43" rx="0" ry="0" style="" width="125.625" x="-62.8125" y="-21.5"></rect><g class="label" style="" transform="translate(-55.3125, -14)"><rect></rect><foreignobject height="28" width="110.625"><div style="display: inline-block; white-space: nowrap;" xmlns="http://www.w3.org/1999/xhtml"><span class="nodeLabel">ZhipuAIAdapter</span></div></foreignobject></g></g><g class="node default default flowchart-label" data-id="DeepSeek" data-node="true" id="flowchart-DeepSeek-895" transform="translate(442.33853912353516, 235.5)"><rect class="basic label-container" height="43" rx="0" ry="0" style="" width="141.36458587646484" x="-70.68229293823242" y="-21.5"></rect><g class="label" style="" transform="translate(-63.18229293823242, -14)"><rect></rect><foreignobject height="28" width="126.36458587646484"><div style="display: inline-block; white-space: nowrap;" xmlns="http://www.w3.org/1999/xhtml"><span class="nodeLabel">DeepSeekAdapter</span></div></foreignobject></g></g><g class="node default default flowchart-label" data-id="QwenAPI" data-node="true" id="flowchart-QwenAPI-897" transform="translate(73.015625, 328.5)"><rect class="basic label-container" height="43" rx="0" ry="0" style="" width="101.8125" x="-50.90625" y="-21.5"></rect><g class="label" style="" transform="translate(-43.40625, -14)"><rect></rect><foreignobject height="28" width="86.8125"><div style="display: inline-block; white-space: nowrap;" xmlns="http://www.w3.org/1999/xhtml"><span class="nodeLabel">通义千问API</span></div></foreignobject></g></g><g class="node default default flowchart-label" data-id="ZhipuAPI" data-node="true" id="flowchart-ZhipuAPI-899" transform="translate(258.84375, 328.5)"><rect class="basic label-container" height="43" rx="0" ry="0" style="" width="87.64583587646484" x="-43.82291793823242" y="-21.5"></rect><g class="label" style="" transform="translate(-36.32291793823242, -14)"><rect></rect><foreignobject height="28" width="72.64583587646484"><div style="display: inline-block; white-space: nowrap;" xmlns="http://www.w3.org/1999/xhtml"><span class="nodeLabel">智谱AI API</span></div></foreignobject></g></g><g class="node default default flowchart-label" data-id="DeepSeekAPI" data-node="true" id="flowchart-DeepSeekAPI-901" transform="translate(442.33853912353516, 328.5)"><rect class="basic label-container" height="43" rx="0" ry="0" style="" width="111.15625" x="-55.578125" y="-21.5"></rect><g class="label" style="" transform="translate(-48.078125, -14)"><rect></rect><foreignobject height="28" width="96.15625"><div style="display: inline-block; white-space: nowrap;" xmlns="http://www.w3.org/1999/xhtml"><span class="nodeLabel">DeepSeek API</span></div></foreignobject></g></g></g></g></g></svg>