<svg aria-roledescription="flowchart-v2" id="bytemd-mermaid-1789040426654-2" role="graphics-document document" style="max-width: 324.265625px;" viewbox="-8 -8 324.265625 1254.875" width="100%" xmlns="http://www.w3.org/2000/svg" xmlns:xlink="http://www.w3.org/1999/xlink"><g><marker class="marker flowchart" id="bytemd-mermaid-1789040426654-2_flowchart-pointEnd" markerheight="12" markerunits="userSpaceOnUse" markerwidth="12" orient="auto" refx="6" refy="5" viewbox="0 0 10 10"><path class="arrowMarkerPath" d="M 0 0 L 10 5 L 0 10 z" style="stroke-width: 1; stroke-dasharray: 1, 0;"></path></marker><marker class="marker flowchart" id="bytemd-mermaid-1789040426654-2_flowchart-pointStart" markerheight="12" markerunits="userSpaceOnUse" markerwidth="12" orient="auto" refx="4.5" refy="5" viewbox="0 0 10 10"><path class="arrowMarkerPath" d="M 0 5 L 10 10 L 10 0 z" style="stroke-width: 1; stroke-dasharray: 1, 0;"></path></marker><marker class="marker flowchart" id="bytemd-mermaid-1789040426654-2_flowchart-circleEnd" markerheight="11" markerunits="userSpaceOnUse" markerwidth="11" orient="auto" refx="11" refy="5" viewbox="0 0 10 10"><circle class="arrowMarkerPath" cx="5" cy="5" r="5" style="stroke-width: 1; stroke-dasharray: 1, 0;"></circle></marker><marker class="marker flowchart" id="bytemd-mermaid-1789040426654-2_flowchart-circleStart" markerheight="11" markerunits="userSpaceOnUse" markerwidth="11" orient="auto" refx="-1" refy="5" viewbox="0 0 10 10"><circle class="arrowMarkerPath" cx="5" cy="5" r="5" style="stroke-width: 1; stroke-dasharray: 1, 0;"></circle></marker><marker class="marker cross flowchart" id="bytemd-mermaid-1789040426654-2_flowchart-crossEnd" markerheight="11" markerunits="userSpaceOnUse" markerwidth="11" orient="auto" refx="12" refy="5.2" viewbox="0 0 11 11"><path class="arrowMarkerPath" d="M 1,1 l 9,9 M 10,1 l -9,9" style="stroke-width: 2; stroke-dasharray: 1, 0;"></path></marker><marker class="marker cross flowchart" id="bytemd-mermaid-1789040426654-2_flowchart-crossStart" markerheight="11" markerunits="userSpaceOnUse" markerwidth="11" orient="auto" refx="-1" refy="5.2" viewbox="0 0 11 11"><path class="arrowMarkerPath" d="M 1,1 l 9,9 M 10,1 l -9,9" style="stroke-width: 2; stroke-dasharray: 1, 0;"></path></marker><g class="root"><g class="clusters"></g><g class="edgePaths"><path class="edge-thickness-normal edge-pattern-solid flowchart-link LS-A LE-B" d="M117.883,43L117.883,47.167C117.883,51.333,117.883,59.667,117.949,67.2C118.015,74.734,118.147,81.467,118.213,84.834L118.279,88.201" id="L-A-B-0" marker-end="url(#bytemd-mermaid-1789040426654-2_flowchart-pointEnd)" style="fill:none;"></path><path class="edge-thickness-normal edge-pattern-solid flowchart-link LS-B LE-C" d="M86.629,221.621L78.774,233.33C70.919,245.039,55.21,268.457,47.355,285.783C39.5,303.108,39.5,314.342,39.5,319.958L39.5,325.575" id="L-B-C-0" marker-end="url(#bytemd-mermaid-1789040426654-2_flowchart-pointEnd)" style="fill:none;"></path><path class="edge-thickness-normal edge-pattern-solid flowchart-link LS-B LE-D" d="M150.137,221.621L157.825,233.33C165.513,245.039,180.889,268.457,188.578,285.783C196.266,303.108,196.266,314.342,196.266,319.958L196.266,325.575" id="L-B-D-0" marker-end="url(#bytemd-mermaid-1789040426654-2_flowchart-pointEnd)" style="fill:none;"></path><path class="edge-thickness-normal edge-pattern-solid flowchart-link LS-D LE-E" d="M196.266,373.875L196.266,378.042C196.266,382.208,196.266,390.542,196.266,397.992C196.266,405.442,196.266,412.008,196.266,415.292L196.266,418.575" id="L-D-E-0" marker-end="url(#bytemd-mermaid-1789040426654-2_flowchart-pointEnd)" style="fill:none;"></path><path class="edge-thickness-normal edge-pattern-solid flowchart-link LS-E LE-F" d="M196.266,494.875L196.266,499.042C196.266,503.208,196.266,511.542,196.266,518.992C196.266,526.442,196.266,533.008,196.266,536.292L196.266,539.575" id="L-E-F-0" marker-end="url(#bytemd-mermaid-1789040426654-2_flowchart-pointEnd)" style="fill:none;"></path><path class="edge-thickness-normal edge-pattern-solid flowchart-link LS-F LE-G" d="M162.744,587.875L156.248,592.042C149.751,596.208,136.758,604.542,130.262,611.992C123.766,619.442,123.766,626.008,123.766,629.292L123.766,632.575" id="L-F-G-0" marker-end="url(#bytemd-mermaid-1789040426654-2_flowchart-pointEnd)" style="fill:none;"></path><path class="edge-thickness-normal edge-pattern-solid flowchart-link LS-G LE-H" d="M123.766,680.875L123.766,685.042C123.766,689.208,123.766,697.542,123.766,704.992C123.766,712.442,123.766,719.008,123.766,722.292L123.766,725.575" id="L-G-H-0" marker-end="url(#bytemd-mermaid-1789040426654-2_flowchart-pointEnd)" style="fill:none;"></path><path class="edge-thickness-normal edge-pattern-solid flowchart-link LS-H LE-I" d="M123.766,773.875L123.766,778.042C123.766,782.208,123.766,790.542,123.766,797.992C123.766,805.442,123.766,812.008,123.766,815.292L123.766,818.575" id="L-H-I-0" marker-end="url(#bytemd-mermaid-1789040426654-2_flowchart-pointEnd)" style="fill:none;"></path><path class="edge-thickness-normal edge-pattern-solid flowchart-link LS-I LE-J" d="M123.766,866.875L123.766,871.042C123.766,875.208,123.766,883.542,123.766,890.992C123.766,898.442,123.766,905.008,123.766,908.292L123.766,911.575" id="L-I-J-0" marker-end="url(#bytemd-mermaid-1789040426654-2_flowchart-pointEnd)" style="fill:none;"></path><path class="edge-thickness-normal edge-pattern-solid flowchart-link LS-J LE-K" d="M123.766,959.875L123.766,964.042C123.766,968.208,123.766,976.542,129.519,984.398C135.271,992.255,146.777,999.634,152.53,1003.324L158.283,1007.014" id="L-J-K-0" marker-end="url(#bytemd-mermaid-1789040426654-2_flowchart-pointEnd)" style="fill:none;"></path><path class="edge-thickness-normal edge-pattern-solid flowchart-link LS-K LE-L" d="M196.266,1052.875L196.266,1057.042C196.266,1061.208,196.266,1069.542,196.266,1076.992C196.266,1084.442,196.266,1091.008,196.266,1094.292L196.266,1097.575" id="L-K-L-0" marker-end="url(#bytemd-mermaid-1789040426654-2_flowchart-pointEnd)" style="fill:none;"></path><path class="edge-thickness-normal edge-pattern-solid flowchart-link LS-L LE-M" d="M196.266,1145.875L196.266,1150.042C196.266,1154.208,196.266,1162.542,196.266,1169.992C196.266,1177.442,196.266,1184.008,196.266,1187.292L196.266,1190.575" id="L-L-M-0" marker-end="url(#bytemd-mermaid-1789040426654-2_flowchart-pointEnd)" style="fill:none;"></path><path class="edge-thickness-normal edge-pattern-solid flowchart-link LS-F LE-N" d="M229.787,587.875L236.284,592.042C242.78,596.208,255.773,604.542,262.269,616.458C268.766,628.375,268.766,643.875,268.766,659.375C268.766,674.875,268.766,690.375,268.766,705.875C268.766,721.375,268.766,736.875,268.766,752.375C268.766,767.875,268.766,783.375,268.766,798.875C268.766,814.375,268.766,829.875,268.766,845.375C268.766,860.875,268.766,876.375,268.766,887.408C268.766,898.442,268.766,905.008,268.766,908.292L268.766,911.575" id="L-F-N-0" marker-end="url(#bytemd-mermaid-1789040426654-2_flowchart-pointEnd)" style="fill:none;"></path><path class="edge-thickness-normal edge-pattern-solid flowchart-link LS-N LE-K" d="M268.766,959.875L268.766,964.042C268.766,968.208,268.766,976.542,263.013,984.398C257.26,992.255,245.754,999.634,240.001,1003.324L234.248,1007.014" id="L-N-K-0" marker-end="url(#bytemd-mermaid-1789040426654-2_flowchart-pointEnd)" style="fill:none;"></path></g><g class="edgeLabels"><g class="edgeLabel"><g class="label" transform="translate(0, 0)"><foreignobject height="0" width="0"><div style="display: inline-block; white-space: nowrap;" xmlns="http://www.w3.org/1999/xhtml"><span class="edgeLabel"></span></div></foreignobject></g></g><g class="edgeLabel" transform="translate(39.5, 291.875)"><g class="label" transform="translate(-8, -14)"><foreignobject height="28" width="16"><div style="display: inline-block; white-space: nowrap;" xmlns="http://www.w3.org/1999/xhtml"><span class="edgeLabel">否</span></div></foreignobject></g></g><g class="edgeLabel" transform="translate(196.265625, 291.875)"><g class="label" transform="translate(-8, -14)"><foreignobject height="28" width="16"><div style="display: inline-block; white-space: nowrap;" xmlns="http://www.w3.org/1999/xhtml"><span class="edgeLabel">是</span></div></foreignobject></g></g><g class="edgeLabel"><g class="label" transform="translate(0, 0)"><foreignobject height="0" width="0"><div style="display: inline-block; white-space: nowrap;" xmlns="http://www.w3.org/1999/xhtml"><span class="edgeLabel"></span></div></foreignobject></g></g><g class="edgeLabel"><g class="label" transform="translate(0, 0)"><foreignobject height="0" width="0"><div style="display: inline-block; white-space: nowrap;" xmlns="http://www.w3.org/1999/xhtml"><span class="edgeLabel"></span></div></foreignobject></g></g><g class="edgeLabel"><g class="label" transform="translate(0, 0)"><foreignobject height="0" width="0"><div style="display: inline-block; white-space: nowrap;" xmlns="http://www.w3.org/1999/xhtml"><span class="edgeLabel"></span></div></foreignobject></g></g><g class="edgeLabel"><g class="label" transform="translate(0, 0)"><foreignobject height="0" width="0"><div style="display: inline-block; white-space: nowrap;" xmlns="http://www.w3.org/1999/xhtml"><span class="edgeLabel"></span></div></foreignobject></g></g><g class="edgeLabel"><g class="label" transform="translate(0, 0)"><foreignobject height="0" width="0"><div style="display: inline-block; white-space: nowrap;" xmlns="http://www.w3.org/1999/xhtml"><span class="edgeLabel"></span></div></foreignobject></g></g><g class="edgeLabel"><g class="label" transform="translate(0, 0)"><foreignobject height="0" width="0"><div style="display: inline-block; white-space: nowrap;" xmlns="http://www.w3.org/1999/xhtml"><span class="edgeLabel"></span></div></foreignobject></g></g><g class="edgeLabel"><g class="label" transform="translate(0, 0)"><foreignobject height="0" width="0"><div style="display: inline-block; white-space: nowrap;" xmlns="http://www.w3.org/1999/xhtml"><span class="edgeLabel"></span></div></foreignobject></g></g><g class="edgeLabel"><g class="label" transform="translate(0, 0)"><foreignobject height="0" width="0"><div style="display: inline-block; white-space: nowrap;" xmlns="http://www.w3.org/1999/xhtml"><span class="edgeLabel"></span></div></foreignobject></g></g><g class="edgeLabel"><g class="label" transform="translate(0, 0)"><foreignobject height="0" width="0"><div style="display: inline-block; white-space: nowrap;" xmlns="http://www.w3.org/1999/xhtml"><span class="edgeLabel"></span></div></foreignobject></g></g><g class="edgeLabel" transform="translate(268.765625, 752.375)"><g class="label" transform="translate(-32, -14)"><foreignobject height="28" width="64"><div style="display: inline-block; white-space: nowrap;" xmlns="http://www.w3.org/1999/xhtml"><span class="edgeLabel">发生异常</span></div></foreignobject></g></g><g class="edgeLabel"><g class="label" transform="translate(0, 0)"><foreignobject height="0" width="0"><div style="display: inline-block; white-space: nowrap;" xmlns="http://www.w3.org/1999/xhtml"><span class="edgeLabel"></span></div></foreignobject></g></g></g><g class="nodes"><g class="node default default flowchart-label" data-id="A" data-node="true" id="flowchart-A-83" transform="translate(117.8828125, 21.5)"><rect class="basic label-container" height="43" rx="0" ry="0" style="fill:#e1f5ff;" width="143" x="-71.5" y="-21.5"></rect><g class="label" style="" transform="translate(-64, -14)"><rect></rect><foreignobject height="28" width="128"><div style="display: inline-block; white-space: nowrap;" xmlns="http://www.w3.org/1999/xhtml"><span class="nodeLabel">从队列获取子任务</span></div></foreignobject></g></g><g class="node default default flowchart-label" data-id="B" data-node="true" id="flowchart-B-84" transform="translate(117.8828125, 172.9375)"><polygon class="label-container" points="79.9375,0 159.875,-79.9375 79.9375,-159.875 0,-79.9375" style="" transform="translate(-79.9375,79.9375)"></polygon><g class="label" style="" transform="translate(-50.9375, -14)"><rect></rect><foreignobject height="28" width="101.875"><div style="display: inline-block; white-space: nowrap;" xmlns="http://www.w3.org/1999/xhtml"><span class="nodeLabel">任务是否有效?</span></div></foreignobject></g></g><g class="node default default flowchart-label" data-id="C" data-node="true" id="flowchart-C-86" transform="translate(39.5, 352.375)"><rect class="basic label-container" height="43" rx="0" ry="0" style="" width="79" x="-39.5" y="-21.5"></rect><g class="label" style="" transform="translate(-32, -14)"><rect></rect><foreignobject height="28" width="64"><div style="display: inline-block; white-space: nowrap;" xmlns="http://www.w3.org/1999/xhtml"><span class="nodeLabel">跳过任务</span></div></foreignobject></g></g><g class="node default default flowchart-label" data-id="D" data-node="true" id="flowchart-D-88" transform="translate(196.265625, 352.375)"><rect class="basic label-container" height="43" rx="0" ry="0" style="" width="134.53125" x="-67.265625" y="-21.5"></rect><g class="label" style="" transform="translate(-59.765625, -14)"><rect></rect><foreignobject height="28" width="119.53125"><div style="display: inline-block; white-space: nowrap;" xmlns="http://www.w3.org/1999/xhtml"><span class="nodeLabel">准备 AI 调用参数</span></div></foreignobject></g></g><g class="node default default flowchart-label" data-id="E" data-node="true" id="flowchart-E-90" transform="translate(196.265625, 459.375)"><rect class="basic label-container" height="71" rx="0" ry="0" style="" width="162.8125" x="-81.40625" y="-35.5"></rect><g class="label" style="" transform="translate(-73.90625, -28)"><rect></rect><foreignobject height="56" width="147.8125"><div style="display: inline-block; white-space: nowrap;" xmlns="http://www.w3.org/1999/xhtml"><span class="nodeLabel">读取任务配置<br/>temperature/topP等</span></div></foreignobject></g></g><g class="node default default flowchart-label" data-id="F" data-node="true" id="flowchart-F-92" transform="translate(196.265625, 566.375)"><rect class="basic label-container" height="43" rx="0" ry="0" style="fill:#fff4e1;" width="134.53125" x="-67.265625" y="-21.5"></rect><g class="label" style="" transform="translate(-59.765625, -14)"><rect></rect><foreignobject height="28" width="119.53125"><div style="display: inline-block; white-space: nowrap;" xmlns="http://www.w3.org/1999/xhtml"><span class="nodeLabel">流式调用 AI 模型</span></div></foreignobject></g></g><g class="node default default flowchart-label" data-id="G" data-node="true" id="flowchart-G-94" transform="translate(123.765625, 659.375)"><rect class="basic label-container" height="43" rx="0" ry="0" style="" width="111" x="-55.5" y="-21.5"></rect><g class="label" style="" transform="translate(-48, -14)"><rect></rect><foreignobject height="28" width="96"><div style="display: inline-block; white-space: nowrap;" xmlns="http://www.w3.org/1999/xhtml"><span class="nodeLabel">累积输出内容</span></div></foreignobject></g></g><g class="node default default flowchart-label" data-id="H" data-node="true" id="flowchart-H-96" transform="translate(123.765625, 752.375)"><rect class="basic label-container" height="43" rx="0" ry="0" style="" width="130.0625" x="-65.03125" y="-21.5"></rect><g class="label" style="" transform="translate(-57.53125, -14)"><rect></rect><foreignobject height="28" width="115.0625"><div style="display: inline-block; white-space: nowrap;" xmlns="http://www.w3.org/1999/xhtml"><span class="nodeLabel">统计 Token 消耗</span></div></foreignobject></g></g><g class="node default default flowchart-label" data-id="I" data-node="true" id="flowchart-I-98" transform="translate(123.765625, 845.375)"><rect class="basic label-container" height="43" rx="0" ry="0" style="" width="79" x="-39.5" y="-21.5"></rect><g class="label" style="" transform="translate(-32, -14)"><rect></rect><foreignobject height="28" width="64"><div style="display: inline-block; white-space: nowrap;" xmlns="http://www.w3.org/1999/xhtml"><span class="nodeLabel">计算成本</span></div></foreignobject></g></g><g class="node default default flowchart-label" data-id="J" data-node="true" id="flowchart-J-100" transform="translate(123.765625, 938.375)"><rect class="basic label-container" height="43" rx="0" ry="0" style="fill:#ffe1f5;" width="111" x="-55.5" y="-21.5"></rect><g class="label" style="" transform="translate(-48, -14)"><rect></rect><foreignobject height="28" width="96"><div style="display: inline-block; white-space: nowrap;" xmlns="http://www.w3.org/1999/xhtml"><span class="nodeLabel">保存测试结果</span></div></foreignobject></g></g><g class="node default default flowchart-label" data-id="K" data-node="true" id="flowchart-K-102" transform="translate(196.265625, 1031.375)"><rect class="basic label-container" height="43" rx="0" ry="0" style="" width="111" x="-55.5" y="-21.5"></rect><g class="label" style="" transform="translate(-48, -14)"><rect></rect><foreignobject height="28" width="96"><div style="display: inline-block; white-space: nowrap;" xmlns="http://www.w3.org/1999/xhtml"><span class="nodeLabel">更新任务进度</span></div></foreignobject></g></g><g class="node default default flowchart-label" data-id="L" data-node="true" id="flowchart-L-104" transform="translate(196.265625, 1124.375)"><rect class="basic label-container" height="43" rx="0" ry="0" style="fill:#e1ffe1;" width="127" x="-63.5" y="-21.5"></rect><g class="label" style="" transform="translate(-56, -14)"><rect></rect><foreignobject height="28" width="112"><div style="display: inline-block; white-space: nowrap;" xmlns="http://www.w3.org/1999/xhtml"><span class="nodeLabel">推送进度到前端</span></div></foreignobject></g></g><g class="node default default flowchart-label" data-id="M" data-node="true" id="flowchart-M-106" transform="translate(196.265625, 1217.375)"><rect class="basic label-container" height="43" rx="0" ry="0" style="" width="79" x="-39.5" y="-21.5"></rect><g class="label" style="" transform="translate(-32, -14)"><rect></rect><foreignobject height="28" width="64"><div style="display: inline-block; white-space: nowrap;" xmlns="http://www.w3.org/1999/xhtml"><span class="nodeLabel">任务完成</span></div></foreignobject></g></g><g class="node default default flowchart-label" data-id="N" data-node="true" id="flowchart-N-108" transform="translate(268.765625, 938.375)"><rect class="basic label-container" height="43" rx="0" ry="0" style="" width="79" x="-39.5" y="-21.5"></rect><g class="label" style="" transform="translate(-32, -14)"><rect></rect><foreignobject height="28" width="64"><div style="display: inline-block; white-space: nowrap;" xmlns="http://www.w3.org/1999/xhtml"><span class="nodeLabel">记录错误</span></div></foreignobject></g></g></g></g></g></svg>