<svg aria-roledescription="stateDiagram" class="statediagram" id="bytemd-mermaid-1789040579920-4" role="graphics-document document" style="max-width: 959.0286865234375px;" viewbox="0 0 959.0286865234375 874" width="100%" xmlns="http://www.w3.org/2000/svg" xmlns:xlink="http://www.w3.org/1999/xlink"><g><defs><marker id="bytemd-mermaid-1789040579920-4_statediagram-barbEnd" markerheight="14" markerunits="strokeWidth" markerwidth="20" orient="auto" refx="19" refy="7"><path d="M 19,7 L9,13 L14,7 L9,1 Z"></path></marker></defs><g class="root"><g class="clusters"><g class="note-cluster" id="预设模板----parent"><rect fill="none" height="298" width="417.0416717529297" x="8" y="100"></rect></g><g class="note-cluster" id="自定义模板----parent"><rect fill="none" height="298" width="481.765625" x="258.26302337646484" y="476"></rect></g></g><g class="edgePaths"><path class="edge-thickness-normal transition" d="M403.012,16.65L372.539,24.042C342.065,31.433,281.117,46.217,250.643,60.108C220.169,74,220.169,87,220.169,97.667C220.169,108.333,220.169,116.667,220.169,120.833L220.169,125" id="edge0" marker-end="url(#bytemd-mermaid-1789040579920-4_statediagram-barbEnd)" style="fill:none"></path><path class="edge-thickness-normal transition" d="M416.739,16.027L467.288,23.522C517.836,31.018,618.932,46.009,669.48,60.004C720.029,74,720.029,87,720.029,101.25C720.029,115.5,720.029,131,720.029,148.833C720.029,166.667,720.029,186.833,720.029,214C720.029,241.167,720.029,275.333,720.029,307.167C720.029,339,720.029,368.5,720.029,389.75C720.029,411,720.029,424,720.029,437C720.029,450,720.029,463,709.059,474.001C698.089,485.003,676.15,494.006,665.181,498.507L654.211,503.008" id="edge1" marker-end="url(#bytemd-mermaid-1789040579920-4_statediagram-barbEnd)" style="fill:none"></path><path class="edge-thickness-normal transition" d="M180.669,160.38L158.558,168.15C136.446,175.92,92.223,191.46,70.112,216.313C48,241.167,48,275.333,48,307.167C48,339,48,368.5,48,389.75C48,411,48,424,48,437C48,450,48,463,48,477.25C48,491.5,48,507,48,524.833C48,542.667,48,562.833,48,586.417C48,610,48,637,48,650.5L48,664" id="edge2" marker-end="url(#bytemd-mermaid-1789040579920-4_statediagram-barbEnd)" style="fill:none"></path><path class="edge-thickness-normal transition" d="M199.142,168L192.785,174.5C186.428,181,173.714,194,167.357,217.583C161,241.167,161,275.333,161,307.167C161,339,161,368.5,161,389.75C161,411,161,424,161,437C161,450,161,463,161,477.25C161,491.5,161,507,161,524.833C161,542.667,161,562.833,161,586.417C161,610,161,637,161,650.5L161,664" id="edge3" marker-end="url(#bytemd-mermaid-1789040579920-4_statediagram-barbEnd)" style="fill:none"></path><path class="edge-thickness-normal transition" d="M225.58,168L227.216,174.5C228.852,181,232.124,194,273.988,215.181C315.852,236.362,396.307,265.723,436.535,280.404L476.763,295.085" id="edge4" marker-end="url(#bytemd-mermaid-1789040579920-4_statediagram-barbEnd)" style="fill:none"></path><path class="edge-thickness-normal transition" d="M559.211,532.194L517.72,540.662C476.228,549.129,393.246,566.065,313.294,589.564C233.342,613.063,156.421,643.126,117.961,658.157L79.5,673.189" id="edge5" marker-end="url(#bytemd-mermaid-1789040579920-4_statediagram-barbEnd)" style="fill:none"></path><path class="edge-thickness-normal transition" d="M559.211,536.556L533.053,544.297C506.895,552.037,454.579,567.519,393.461,590.112C332.342,612.706,262.421,642.412,227.461,657.264L192.5,672.117" id="edge6" marker-end="url(#bytemd-mermaid-1789040579920-4_statediagram-barbEnd)" style="fill:none"></path><path class="edge-thickness-normal transition" d="M622.262,501L625.275,496.833C628.289,492.667,634.316,484.333,637.33,473.667C640.344,463,640.344,450,640.344,437C640.344,424,640.344,411,624.688,393.333C609.031,375.667,577.719,353.333,562.063,342.167L546.407,331" id="edge7" marker-end="url(#bytemd-mermaid-1789040579920-4_statediagram-barbEnd)" style="fill:none"></path><path class="edge-thickness-normal transition" d="M566.75,544L554.669,550.5C542.588,557,518.425,570,571.972,592.318C625.518,614.636,756.773,646.272,822.401,662.09L888.029,677.908" id="edge8" marker-end="url(#bytemd-mermaid-1789040579920-4_statediagram-barbEnd)" style="fill:none"></path><path class="edge-thickness-normal transition" d="M596.601,544L593.545,550.5C590.489,557,584.376,570,614.114,591.226C643.852,612.452,709.44,641.904,742.234,656.629L775.029,671.355" id="edge9" marker-end="url(#bytemd-mermaid-1789040579920-4_statediagram-barbEnd)" style="fill:none"></path><path class="edge-thickness-normal transition" d="M888.029,671.724L854.215,656.937C820.401,642.15,752.773,612.575,710.533,591.287C668.292,570,651.438,557,643.011,550.5L634.584,544" id="edge10" marker-end="url(#bytemd-mermaid-1789040579920-4_statediagram-barbEnd)" style="fill:none"></path><path class="edge-thickness-normal transition" d="M806.529,707L806.529,718.167C806.529,729.333,806.529,751.667,806.529,769.333C806.529,787,806.529,800,806.529,813C806.529,826,806.529,839,806.529,845.5L806.529,852" id="edge11" marker-end="url(#bytemd-mermaid-1789040579920-4_statediagram-barbEnd)" style="fill:none"></path><path class="edge-thickness-normal transition" d="M483.862,288L463.517,274.5C443.172,261,402.482,234,365.116,213.229C327.751,192.458,293.71,177.916,276.69,170.645L259.669,163.374" id="edge12" marker-end="url(#bytemd-mermaid-1789040579920-4_statediagram-barbEnd)" style="fill:none"></path><path class="edge-thickness-normal transition" d="M505.581,331L500.033,342.167C494.484,353.333,483.388,375.667,477.84,393.333C472.292,411,472.292,424,472.292,437C472.292,450,472.292,463,486.778,474.511C501.265,486.023,530.238,496.045,544.724,501.057L559.211,506.068" id="edge13" marker-end="url(#bytemd-mermaid-1789040579920-4_statediagram-barbEnd)" style="fill:none"></path><path class="edge-thickness-normal transition note-edge" d="M252.019,168L261.647,174.5C271.276,181,290.534,194,300.163,207C309.792,220,309.792,233,309.792,239.5L309.792,246" style="fill:none"></path><path class="edge-thickness-normal transition note-edge" d="M615.081,544L617.611,550.5C620.141,557,625.202,570,627.733,583C630.263,596,630.263,609,630.263,615.5L630.263,622" style="fill:none"></path></g><g class="edgeLabels"><g class="edgeLabel" transform="translate(220.16926956176758, 61)"><g class="label" transform="translate(-40, -14)"><rect height="28" rx="0" ry="0" width="80"></rect><foreignobject height="28" width="80"><div style="display: inline-block; white-space: nowrap;" xmlns="http://www.w3.org/1999/xhtml"><span class="edgeLabel">系统初始化</span></div></foreignobject></g></g><g class="edgeLabel" transform="translate(720.0286483764648, 207)"><g class="label" transform="translate(-32, -14)"><rect height="28" rx="0" ry="0" width="64"></rect><foreignobject height="28" width="64"><div style="display: inline-block; white-space: nowrap;" xmlns="http://www.w3.org/1999/xhtml"><span class="edgeLabel">用户创建</span></div></foreignobject></g></g><g class="edgeLabel" transform="translate(48, 437)"><g class="label" transform="translate(-32, -14)"><rect height="28" rx="0" ry="0" width="64"></rect><foreignobject height="28" width="64"><div style="display: inline-block; white-space: nowrap;" xmlns="http://www.w3.org/1999/xhtml"><span class="edgeLabel">任何用户</span></div></foreignobject></g></g><g class="edgeLabel" transform="translate(161, 437)"><g class="label" transform="translate(-40, -14)"><rect height="28" rx="0" ry="0" width="80"></rect><foreignobject height="28" width="80"><div style="display: inline-block; white-space: nowrap;" xmlns="http://www.w3.org/1999/xhtml"><span class="edgeLabel">应用到变体</span></div></foreignobject></g></g><g class="edgeLabel" transform="translate(235.39583587646484, 207)"><g class="label" transform="translate(-54.395835876464844, -14)"><rect height="28" rx="0" ry="0" width="108.79167175292969"></rect><foreignobject height="28" width="108.79167175292969"><div style="display: inline-block; white-space: nowrap;" xmlns="http://www.w3.org/1999/xhtml"><span class="edgeLabel">usageCount + 1</span></div></foreignobject></g></g><g class="edgeLabel" transform="translate(310.26302337646484, 583)"><g class="label" transform="translate(-32, -14)"><rect height="28" rx="0" ry="0" width="64"></rect><foreignobject height="28" width="64"><div style="display: inline-block; white-space: nowrap;" xmlns="http://www.w3.org/1999/xhtml"><span class="edgeLabel">仅创建者</span></div></foreignobject></g></g><g class="edgeLabel" transform="translate(402.26302337646484, 583)"><g class="label" transform="translate(-40, -14)"><rect height="28" rx="0" ry="0" width="80"></rect><foreignobject height="28" width="80"><div style="display: inline-block; white-space: nowrap;" xmlns="http://www.w3.org/1999/xhtml"><span class="edgeLabel">应用到变体</span></div></foreignobject></g></g><g class="edgeLabel" transform="translate(640.3437538146973, 437)"><g class="label" transform="translate(-54.395835876464844, -14)"><rect height="28" rx="0" ry="0" width="108.79167175292969"></rect><foreignobject height="28" width="108.79167175292969"><div style="display: inline-block; white-space: nowrap;" xmlns="http://www.w3.org/1999/xhtml"><span class="edgeLabel">usageCount + 1</span></div></foreignobject></g></g><g class="edgeLabel" transform="translate(494.26302337646484, 583)"><g class="label" transform="translate(-32, -14)"><rect height="28" rx="0" ry="0" width="64"></rect><foreignobject height="28" width="64"><div style="display: inline-block; white-space: nowrap;" xmlns="http://www.w3.org/1999/xhtml"><span class="edgeLabel">仅创建者</span></div></foreignobject></g></g><g class="edgeLabel" transform="translate(578.2630233764648, 583)"><g class="label" transform="translate(-32, -14)"><rect height="28" rx="0" ry="0" width="64"></rect><foreignobject height="28" width="64"><div style="display: inline-block; white-space: nowrap;" xmlns="http://www.w3.org/1999/xhtml"><span class="edgeLabel">仅创建者</span></div></foreignobject></g></g><g class="edgeLabel" transform="translate(685.1458358764648, 583)"><g class="label" transform="translate(-32, -14)"><rect height="28" rx="0" ry="0" width="64"></rect><foreignobject height="28" width="64"><div style="display: inline-block; white-space: nowrap;" xmlns="http://www.w3.org/1999/xhtml"><span class="edgeLabel">更新内容</span></div></foreignobject></g></g><g class="edgeLabel" transform="translate(806.5286483764648, 813)"><g class="label" transform="translate(-32, -14)"><rect height="28" rx="0" ry="0" width="64"></rect><foreignobject height="28" width="64"><div style="display: inline-block; white-space: nowrap;" xmlns="http://www.w3.org/1999/xhtml"><span class="edgeLabel">物理删除</span></div></foreignobject></g></g><g class="edgeLabel" transform="translate(361.7916717529297, 207)"><g class="label" transform="translate(-32, -14)"><rect height="28" rx="0" ry="0" width="64"></rect><foreignobject height="28" width="64"><div style="display: inline-block; white-space: nowrap;" xmlns="http://www.w3.org/1999/xhtml"><span class="edgeLabel">继续可用</span></div></foreignobject></g></g><g class="edgeLabel" transform="translate(472.2916717529297, 437)"><g class="label" transform="translate(-32, -14)"><rect height="28" rx="0" ry="0" width="64"></rect><foreignobject height="28" width="64"><div style="display: inline-block; white-space: nowrap;" xmlns="http://www.w3.org/1999/xhtml"><span class="edgeLabel">继续可用</span></div></foreignobject></g></g><g class="edgeLabel"><g class="label" transform="translate(0, 0)"><rect height="0" rx="0" ry="0" width="0"></rect><foreignobject height="0" width="0"><div style="display: inline-block; white-space: nowrap;" xmlns="http://www.w3.org/1999/xhtml"><span class="edgeLabel"></span></div></foreignobject></g></g><g class="edgeLabel"><g class="label" transform="translate(0, 0)"><rect height="0" rx="0" ry="0" width="0"></rect><foreignobject height="0" width="0"><div style="display: inline-block; white-space: nowrap;" xmlns="http://www.w3.org/1999/xhtml"><span class="edgeLabel"></span></div></foreignobject></g></g></g><g class="nodes"><g class="node default" data-id="root_start" data-node="true" id="state-root_start-1" transform="translate(409.8151054382324, 15)"><circle class="state-start" height="14" r="7" width="14"></circle></g><g class="node statediagram-state undefined" data-id="预设模板" data-node="true" id="state-预设模板-14" transform="translate(220.16926956176758, 146.5)"><rect class="basic label-container" height="43" style="" width="79" x="-39.5" y="-21.5"></rect><g class="label" style="" transform="translate(-32, -14)"><rect></rect><foreignobject height="28" width="64"><div style="display: inline-block; white-space: nowrap;" xmlns="http://www.w3.org/1999/xhtml"><span class="nodeLabel">预设模板</span></div></foreignobject></g></g><g class="node statediagram-state undefined" data-id="自定义模板" data-node="true" id="state-自定义模板-15" transform="translate(606.7109413146973, 522.5)"><rect class="basic label-container" height="43" style="" width="95" x="-47.5" y="-21.5"></rect><g class="label" style="" transform="translate(-40, -14)"><rect></rect><foreignobject height="28" width="80"><div style="display: inline-block; white-space: nowrap;" xmlns="http://www.w3.org/1999/xhtml"><span class="nodeLabel">自定义模板</span></div></foreignobject></g></g><g class="node statediagram-state undefined" data-id="被查看" data-node="true" id="state-被查看-5" transform="translate(48, 685.5)"><rect class="basic label-container" height="43" style="" width="63" x="-31.5" y="-21.5"></rect><g class="label" style="" transform="translate(-24, -14)"><rect></rect><foreignobject height="28" width="48"><div style="display: inline-block; white-space: nowrap;" xmlns="http://www.w3.org/1999/xhtml"><span class="nodeLabel">被查看</span></div></foreignobject></g></g><g class="node statediagram-state undefined" data-id="被使用" data-node="true" id="state-被使用-6" transform="translate(161, 685.5)"><rect class="basic label-container" height="43" style="" width="63" x="-31.5" y="-21.5"></rect><g class="label" style="" transform="translate(-24, -14)"><rect></rect><foreignobject height="28" width="48"><div style="display: inline-block; white-space: nowrap;" xmlns="http://www.w3.org/1999/xhtml"><span class="nodeLabel">被使用</span></div></foreignobject></g></g><g class="node statediagram-state undefined" data-id="计数增加" data-node="true" id="state-计数增加-13" transform="translate(516.2630233764648, 309.5)"><rect class="basic label-container" height="43" style="" width="79" x="-39.5" y="-21.5"></rect><g class="label" style="" transform="translate(-32, -14)"><rect></rect><foreignobject height="28" width="64"><div style="display: inline-block; white-space: nowrap;" xmlns="http://www.w3.org/1999/xhtml"><span class="nodeLabel">计数增加</span></div></foreignobject></g></g><g class="node statediagram-state undefined" data-id="被编辑" data-node="true" id="state-被编辑-10" transform="translate(919.5286483764648, 685.5)"><rect class="basic label-container" height="43" style="" width="63" x="-31.5" y="-21.5"></rect><g class="label" style="" transform="translate(-24, -14)"><rect></rect><foreignobject height="28" width="48"><div style="display: inline-block; white-space: nowrap;" xmlns="http://www.w3.org/1999/xhtml"><span class="nodeLabel">被编辑</span></div></foreignobject></g></g><g class="node statediagram-state undefined" data-id="被删除" data-node="true" id="state-被删除-11" transform="translate(806.5286483764648, 685.5)"><rect class="basic label-container" height="43" style="" width="63" x="-31.5" y="-21.5"></rect><g class="label" style="" transform="translate(-24, -14)"><rect></rect><foreignobject height="28" width="48"><div style="display: inline-block; white-space: nowrap;" xmlns="http://www.w3.org/1999/xhtml"><span class="nodeLabel">被删除</span></div></foreignobject></g></g><g class="node default" data-id="root_end" data-node="true" id="state-root_end-11" transform="translate(806.5286483764648, 859)"><circle class="state-start" height="14" r="7" width="14"></circle><circle class="state-end" height="10" r="5" width="10"></circle></g><g class="node statediagram-note" data-id="预设模板----note-14" data-node="true" id="state-预设模板----note-14" transform="translate(309.7916717529297, 309.5)"><rect height="127" width="130.09375" x="-65.046875" y="-63.5"></rect><g class="label" style="" transform="translate(-57.546875, -56)"><rect></rect><foreignobject height="112" width="115.09375"><div style="display: inline-block; white-space: nowrap;" xmlns="http://www.w3.org/1999/xhtml"><span class="nodeLabel">- userId = NULL<br/>        - isPreset = 1<br/>        - 不可修改/删除<br/>        - 所有用户可见</span></div></foreignobject></g></g><g class="node statediagram-note" data-id="自定义模板----note-15" data-node="true" id="state-自定义模板----note-15" transform="translate(630.2630233764648, 685.5)"><rect height="127" width="149.53125" x="-74.765625" y="-63.5"></rect><g class="label" style="" transform="translate(-67.265625, -56)"><rect></rect><foreignobject height="112" width="134.53125"><div style="display: inline-block; white-space: nowrap;" xmlns="http://www.w3.org/1999/xhtml"><span class="nodeLabel">- userId = 创建者ID<br/>        - isPreset = 0<br/>        - 可修改/删除<br/>        - 仅创建者可见</span></div></foreignobject></g></g></g></g></g></svg>