<svg aria-roledescription="flowchart-v2" id="bytemd-mermaid-1789020328000-5" role="graphics-document document" style="max-width: 263.6875px;" viewbox="-8 -8 263.6875 524" width="100%" xmlns="http://www.w3.org/2000/svg" xmlns:xlink="http://www.w3.org/1999/xlink"><g><marker class="marker flowchart" id="bytemd-mermaid-1789020328000-5_flowchart-pointEnd" markerheight="12" markerunits="userSpaceOnUse" markerwidth="12" orient="auto" refx="6" refy="5" viewbox="0 0 10 10"><path class="arrowMarkerPath" d="M 0 0 L 10 5 L 0 10 z" style="stroke-width: 1; stroke-dasharray: 1, 0;"></path></marker><marker class="marker flowchart" id="bytemd-mermaid-1789020328000-5_flowchart-pointStart" markerheight="12" markerunits="userSpaceOnUse" markerwidth="12" orient="auto" refx="4.5" refy="5" viewbox="0 0 10 10"><path class="arrowMarkerPath" d="M 0 5 L 10 10 L 10 0 z" style="stroke-width: 1; stroke-dasharray: 1, 0;"></path></marker><marker class="marker flowchart" id="bytemd-mermaid-1789020328000-5_flowchart-circleEnd" markerheight="11" markerunits="userSpaceOnUse" markerwidth="11" orient="auto" refx="11" refy="5" viewbox="0 0 10 10"><circle class="arrowMarkerPath" cx="5" cy="5" r="5" style="stroke-width: 1; stroke-dasharray: 1, 0;"></circle></marker><marker class="marker flowchart" id="bytemd-mermaid-1789020328000-5_flowchart-circleStart" markerheight="11" markerunits="userSpaceOnUse" markerwidth="11" orient="auto" refx="-1" refy="5" viewbox="0 0 10 10"><circle class="arrowMarkerPath" cx="5" cy="5" r="5" style="stroke-width: 1; stroke-dasharray: 1, 0;"></circle></marker><marker class="marker cross flowchart" id="bytemd-mermaid-1789020328000-5_flowchart-crossEnd" markerheight="11" markerunits="userSpaceOnUse" markerwidth="11" orient="auto" refx="12" refy="5.2" viewbox="0 0 11 11"><path class="arrowMarkerPath" d="M 1,1 l 9,9 M 10,1 l -9,9" style="stroke-width: 2; stroke-dasharray: 1, 0;"></path></marker><marker class="marker cross flowchart" id="bytemd-mermaid-1789020328000-5_flowchart-crossStart" markerheight="11" markerunits="userSpaceOnUse" markerwidth="11" orient="auto" refx="-1" refy="5.2" viewbox="0 0 11 11"><path class="arrowMarkerPath" d="M 1,1 l 9,9 M 10,1 l -9,9" style="stroke-width: 2; stroke-dasharray: 1, 0;"></path></marker><g class="root"><g class="clusters"></g><g class="edgePaths"><path class="edge-thickness-normal edge-pattern-solid flowchart-link LS-A LE-B" d="M123.844,43L123.844,47.167C123.844,51.333,123.844,59.667,123.844,67.117C123.844,74.567,123.844,81.133,123.844,84.417L123.844,87.7" id="L-A-B-0" marker-end="url(#bytemd-mermaid-1789020328000-5_flowchart-pointEnd)" style="fill:none;"></path><path class="edge-thickness-normal edge-pattern-solid flowchart-link LS-B LE-C" d="M123.844,136L123.844,140.167C123.844,144.333,123.844,152.667,123.844,160.117C123.844,167.567,123.844,174.133,123.844,177.417L123.844,180.7" id="L-B-C-0" marker-end="url(#bytemd-mermaid-1789020328000-5_flowchart-pointEnd)" style="fill:none;"></path><path class="edge-thickness-normal edge-pattern-solid flowchart-link LS-C LE-D" d="M123.844,229L123.844,233.167C123.844,237.333,123.844,245.667,123.844,253.117C123.844,260.567,123.844,267.133,123.844,270.417L123.844,273.7" id="L-C-D-0" marker-end="url(#bytemd-mermaid-1789020328000-5_flowchart-pointEnd)" style="fill:none;"></path><path class="edge-thickness-normal edge-pattern-solid flowchart-link LS-D LE-E" d="M123.844,322L123.844,326.167C123.844,330.333,123.844,338.667,123.844,346.117C123.844,353.567,123.844,360.133,123.844,363.417L123.844,366.7" id="L-D-E-0" marker-end="url(#bytemd-mermaid-1789020328000-5_flowchart-pointEnd)" style="fill:none;"></path><path class="edge-thickness-normal edge-pattern-solid flowchart-link LS-E LE-F" d="M123.844,415L123.844,419.167C123.844,423.333,123.844,431.667,123.844,439.117C123.844,446.567,123.844,453.133,123.844,456.417L123.844,459.7" id="L-E-F-0" marker-end="url(#bytemd-mermaid-1789020328000-5_flowchart-pointEnd)" style="fill:none;"></path></g><g class="edgeLabels"><g class="edgeLabel"><g class="label" transform="translate(0, 0)"><foreignobject height="0" width="0"><div style="display: inline-block; white-space: nowrap;" xmlns="http://www.w3.org/1999/xhtml"><span class="edgeLabel"></span></div></foreignobject></g></g><g class="edgeLabel"><g class="label" transform="translate(0, 0)"><foreignobject height="0" width="0"><div style="display: inline-block; white-space: nowrap;" xmlns="http://www.w3.org/1999/xhtml"><span class="edgeLabel"></span></div></foreignobject></g></g><g class="edgeLabel"><g class="label" transform="translate(0, 0)"><foreignobject height="0" width="0"><div style="display: inline-block; white-space: nowrap;" xmlns="http://www.w3.org/1999/xhtml"><span class="edgeLabel"></span></div></foreignobject></g></g><g class="edgeLabel"><g class="label" transform="translate(0, 0)"><foreignobject height="0" width="0"><div style="display: inline-block; white-space: nowrap;" xmlns="http://www.w3.org/1999/xhtml"><span class="edgeLabel"></span></div></foreignobject></g></g><g class="edgeLabel"><g class="label" transform="translate(0, 0)"><foreignobject height="0" width="0"><div style="display: inline-block; white-space: nowrap;" xmlns="http://www.w3.org/1999/xhtml"><span class="edgeLabel"></span></div></foreignobject></g></g></g><g class="nodes"><g class="node default default flowchart-label" data-id="A" data-node="true" id="flowchart-A-212" transform="translate(123.84375, 21.5)"><rect class="basic label-container" height="43" rx="0" ry="0" style="fill:#e3f2fd;" width="172.71875" x="-86.359375" y="-21.5"></rect><g class="label" style="" transform="translate(-78.859375, -14)"><rect></rect><foreignobject height="28" width="157.71875"><div style="display: inline-block; white-space: nowrap;" xmlns="http://www.w3.org/1999/xhtml"><span class="nodeLabel">📥 获取最近 Commits</span></div></foreignobject></g></g><g class="node default default flowchart-label" data-id="B" data-node="true" id="flowchart-B-213" transform="translate(123.84375, 114.5)"><rect class="basic label-container" height="43" rx="0" ry="0" style="" width="247.6875" x="-123.84375" y="-21.5"></rect><g class="label" style="" transform="translate(-116.34375, -14)"><rect></rect><foreignobject height="28" width="232.6875"><div style="display: inline-block; white-space: nowrap;" xmlns="http://www.w3.org/1999/xhtml"><span class="nodeLabel">📋 解析每个 Commit 的变更文件</span></div></foreignobject></g></g><g class="node default default flowchart-label" data-id="C" data-node="true" id="flowchart-C-215" transform="translate(123.84375, 207.5)"><rect class="basic label-container" height="43" rx="0" ry="0" style="" width="239.5" x="-119.75" y="-21.5"></rect><g class="label" style="" transform="translate(-112.25, -14)"><rect></rect><foreignobject height="28" width="224.5"><div style="display: inline-block; white-space: nowrap;" xmlns="http://www.w3.org/1999/xhtml"><span class="nodeLabel">🔍 过滤出基准语言的 .md 文件</span></div></foreignobject></g></g><g class="node default default flowchart-label" data-id="D" data-node="true" id="flowchart-D-217" transform="translate(123.84375, 300.5)"><rect class="basic label-container" height="43" rx="0" ry="0" style="" width="233.796875" x="-116.8984375" y="-21.5"></rect><g class="label" style="" transform="translate(-109.3984375, -14)"><rect></rect><foreignobject height="28" width="218.796875"><div style="display: inline-block; white-space: nowrap;" xmlns="http://www.w3.org/1999/xhtml"><span class="nodeLabel">✅ 检查是否在翻译配置范围内</span></div></foreignobject></g></g><g class="node default default flowchart-label" data-id="E" data-node="true" id="flowchart-E-219" transform="translate(123.84375, 393.5)"><rect class="basic label-container" height="43" rx="0" ry="0" style="" width="153.796875" x="-76.8984375" y="-21.5"></rect><g class="label" style="" transform="translate(-69.3984375, -14)"><rect></rect><foreignobject height="28" width="138.796875"><div style="display: inline-block; white-space: nowrap;" xmlns="http://www.w3.org/1999/xhtml"><span class="nodeLabel">🔄 对文件列表去重</span></div></foreignobject></g></g><g class="node default default flowchart-label" data-id="F" data-node="true" id="flowchart-F-221" transform="translate(123.84375, 486.5)"><rect class="basic label-container" height="43" rx="0" ry="0" style="fill:#e8f5e9;" width="217.796875" x="-108.8984375" y="-21.5"></rect><g class="label" style="" transform="translate(-101.3984375, -14)"><rect></rect><foreignobject height="28" width="202.796875"><div style="display: inline-block; white-space: nowrap;" xmlns="http://www.w3.org/1999/xhtml"><span class="nodeLabel">📤 返回需要翻译的文件列表</span></div></foreignobject></g></g></g></g></g></svg>